<?xml version="1.0" encoding="utf-8" ?>
<svg xmlns="http://www.w3.org/2000/svg" xmlns:xlink="http://www.w3.org/1999/xlink" width="252" height="252">
	<path fill="#F8F6EE" transform="scale(0.246094 0.246094)" d="M0 0L1024 0L1024 1024L0 1024L0 0ZM389.327 187.478C380.682 177.541 371.316 168.492 361.549 159.661C334.782 135.461 304.738 114.737 267.556 112.089C242.078 110.274 216.797 115.547 192.29 121.992C159.941 130.498 125.208 141.986 99.5997 164.425C64.7768 194.938 50.3224 238.142 47.4778 283.248C42.4516 362.945 79.2446 444.746 121.384 510.41C96.067 530.117 83.2034 558.93 79.3562 590.094C77.1171 608.232 78.6469 626.947 80.9601 645C88.132 700.971 106.99 755.064 132.171 805.349C145.442 831.849 159.898 856.682 178.254 880.026C200.042 907.735 229.727 936.964 266.268 941.366C285.351 943.665 303.445 937.546 318.405 925.725C331.991 914.991 342.087 901.489 350.745 886.64C400.279 912.989 467.887 925.798 523.812 924.968C539.131 924.741 554.328 923.16 569.496 921.078C632.925 912.371 699.636 885.697 740.645 834.581C746.392 827.418 751.993 819.596 756.36 811.516C759.422 805.849 761.935 798.892 765.862 793.853C765.964 793.721 766.072 793.593 766.178 793.463L827.013 793.842C837.26 793.889 848.138 794.638 858.341 793.826C860.898 793.623 864.998 793.173 866.964 791.33C868.825 789.585 869.476 787.153 869.724 784.701C870.721 774.822 870.046 764.224 870.056 754.272L870.073 696.618L870.207 568.467C870.118 536.936 869.417 505.273 870.337 473.754C874.12 470.001 878.186 466.534 881.993 462.798C929.612 416.063 949.574 336.452 959.456 272.54C962.179 254.929 965.409 232.523 965.593 214.797C960.579 205.964 953.373 197.589 946.028 190.613C877.034 125.09 762.658 144.871 678.019 158.9Q627.851 167.227 577.497 174.349C541.287 179.118 502.653 183.273 466.276 185.443C441.153 186.942 415.847 187.213 390.686 187.934L389.327 187.478Z"/>
	<path fill="#3D3E3C" transform="scale(0.246094 0.246094)" d="M380.88 185.921C374.428 178.725 367.475 172.17 360.412 165.589C333.232 140.259 302.243 119.025 263.996 116.814C242.328 115.561 220.504 120.289 199.587 125.444C165.015 133.965 128.911 144.595 101.841 168.994C69.0878 198.517 54.3038 239.748 52.1711 283.028C48.7327 352.808 74.3725 418.897 107.847 478.966C113.162 488.503 119.251 497.554 124.767 506.961C125.537 508.347 126.694 509.993 126.415 511.662C126.325 512.197 126.144 512.513 125.924 512.981C124.937 513.293 124.774 513.387 123.861 512.927C122.869 512.427 122.079 511.259 121.384 510.41C79.2446 444.746 42.4516 362.945 47.4778 283.248C50.3224 238.142 64.7768 194.938 99.5997 164.425C125.208 141.986 159.941 130.498 192.29 121.992C216.797 115.547 242.078 110.274 267.556 112.089C304.738 114.737 334.782 135.461 361.549 159.661C371.316 168.492 380.682 177.541 389.327 187.478C386.09 187.608 383.493 188.155 380.88 185.921Z"/>
	<path fill="#F8F6EE" transform="scale(0.246094 0.246094)" d="M124.767 506.961C119.251 497.554 113.162 488.503 107.847 478.966C74.3725 418.897 48.7327 352.808 52.1711 283.028C54.3038 239.748 69.0878 198.517 101.841 168.994C128.911 144.595 165.015 133.965 199.587 125.444C220.504 120.289 242.328 115.561 263.996 116.814C302.243 119.025 333.232 140.259 360.412 165.589C367.475 172.17 374.428 178.725 380.88 185.921C380.681 186.008 380.484 186.102 380.282 186.183C377.55 187.283 352.988 186.488 348.004 186.407C314.822 185.865 281.584 181.875 248.398 183.623C190.564 186.669 132.813 212.457 106.581 266.85C86.2061 309.098 90.1069 356.592 105.487 399.729C110.36 413.396 115.702 427.218 121.646 440.453C127.112 452.622 134.14 465.033 137.539 477.95C138.706 482.384 139.51 487.989 137.503 492.267C135.077 497.437 128.986 503.225 124.767 506.961Z"/>
	<path fill="#B7D5DC" transform="scale(0.246094 0.246094)" d="M380.88 185.921C383.493 188.155 386.09 187.608 389.327 187.478L390.686 187.934C415.847 187.213 441.153 186.942 466.276 185.443C502.653 183.273 541.287 179.118 577.497 174.349Q627.851 167.228 678.019 158.9C762.658 144.871 877.034 125.09 946.028 190.613C953.373 197.589 960.579 205.964 965.593 214.797C965.409 232.523 962.179 254.929 959.456 272.54C949.574 336.452 929.612 416.063 881.993 462.798C878.186 466.534 874.12 470.001 870.337 473.754Q870.052 441.883 870.271 410.013L870.155 301.605L870.31 256.799C870.368 248.713 870.949 240.245 870.255 232.207C869.974 228.952 869.696 226.261 867.202 223.878C864.937 221.713 861.823 220.825 858.765 220.608C853.713 220.251 848.461 220.538 843.386 220.539L813.299 220.525L718.35 220.5L415.213 220.512L257.955 220.375L198.695 220.493C189.288 220.534 179.399 219.886 170.056 220.637C166.252 220.942 162.787 221.422 159.977 224.209C157.89 226.28 156.764 228.683 156.531 231.6C155.889 239.601 156.388 248.004 156.413 256.042L156.409 300.865L156.357 450.521L156.601 664.427L156.549 748.983C156.567 760.904 156.28 772.872 156.555 784.787C156.629 787.98 156.743 790.059 158.931 792.568C165.229 795.122 207.24 793.656 217.159 793.654L323.622 793.862C345.418 793.788 367.5 792.83 389.26 793.626C386.52 793.884 383.835 793.938 381.087 793.942C380.412 801.853 378.433 809.649 376.624 817.362C372.433 835.237 367.31 853.778 359.405 870.412C356.784 875.926 353.67 881.279 350.745 886.64C342.087 901.489 331.991 914.991 318.405 925.725C303.445 937.546 285.351 943.665 266.268 941.366C229.727 936.964 200.042 907.735 178.254 880.026C159.898 856.682 145.442 831.849 132.171 805.349C106.99 755.064 88.132 700.971 80.9601 645C78.6469 626.947 77.1171 608.232 79.3562 590.094C83.2034 558.93 96.067 530.117 121.384 510.41C122.079 511.259 122.869 512.427 123.861 512.927C124.774 513.387 124.937 513.293 125.924 512.981C126.144 512.513 126.325 512.197 126.415 511.662C126.694 509.993 125.537 508.347 124.767 506.961C128.986 503.225 135.077 497.437 137.503 492.267C139.51 487.989 138.706 482.384 137.539 477.95C134.14 465.033 127.112 452.622 121.646 440.453C115.702 427.218 110.36 413.396 105.487 399.729C90.1069 356.592 86.2061 309.098 106.581 266.85C132.813 212.457 190.564 186.669 248.398 183.623C281.584 181.875 314.822 185.865 348.004 186.407C352.988 186.488 377.55 187.283 380.282 186.183C380.484 186.102 380.681 186.008 380.88 185.921Z"/>
	<path fill="#3A3A35" transform="scale(0.246094 0.246094)" d="M389.26 793.626C367.5 792.83 345.418 793.788 323.622 793.862L217.159 793.654C207.24 793.656 165.229 795.122 158.931 792.568C156.743 790.059 156.629 787.98 156.555 784.787C156.28 772.872 156.567 760.904 156.549 748.983L156.601 664.427L156.357 450.521L156.409 300.865L156.413 256.042C156.388 248.004 155.889 239.601 156.531 231.6C156.764 228.683 157.89 226.28 159.977 224.209C162.787 221.422 166.252 220.942 170.056 220.637C179.399 219.886 189.288 220.534 198.695 220.493L257.955 220.375L415.213 220.512L718.35 220.5L813.299 220.525L843.386 220.539C848.461 220.538 853.713 220.251 858.765 220.608C861.823 220.825 864.937 221.713 867.202 223.878C869.696 226.261 869.974 228.952 870.255 232.207C870.949 240.245 870.368 248.713 870.31 256.799L870.155 301.605L870.271 410.013Q870.052 441.884 870.337 473.754C869.417 505.273 870.118 536.936 870.207 568.467L870.073 696.618L870.056 754.272C870.046 764.224 870.721 774.822 869.724 784.701C869.476 787.153 868.825 789.585 866.964 791.33C864.998 793.173 860.898 793.623 858.341 793.826C848.138 794.638 837.26 793.889 827.013 793.842L766.178 793.463C748.442 792.794 730.572 793.19 712.822 793.227L627.598 793.305L389.26 793.626ZM483.392 224.194L278.622 224.123L203.412 224.276C192.921 224.34 182.269 223.97 171.803 224.409C169.515 224.505 165.56 224.534 163.811 226.07C160.222 229.221 160.295 235.117 160.287 239.472L160.279 257.573L441.96 257.516L866.504 257.629C866.469 250.655 866.674 243.677 866.688 236.702C866.695 233.1 866.7 228.377 863.845 225.734C862.253 224.26 857.957 224.462 855.83 224.387C839.982 223.829 824.024 224.162 808.162 224.133L722.178 224.058L483.392 224.194ZM457.154 261.394C444.003 260.65 430.611 261.15 417.436 261.211L351.384 261.341L227.063 261.464C204.749 261.484 182.363 261.085 160.058 261.488L160.247 477.837L160.449 534.282C160.48 544.223 159.889 554.792 160.886 564.662C160.691 570.188 160.846 575.722 160.931 581.249L160.617 712.787L160.58 761.553C160.612 770.855 160.333 780.304 161.111 789.572C185.579 790.612 210.408 789.801 234.913 789.803L381.977 789.562L644.426 789.465L725.392 789.598C739.451 789.633 754.013 788.916 768 789.997C786.471 790.52 805.018 790.293 823.496 790.368C835.304 790.416 847.544 791.131 859.312 790.311C860.919 790.2 863.491 790.16 864.658 788.964C866.282 787.3 866.387 784.472 866.495 782.274C867.054 770.87 866.553 759.219 866.54 747.779L866.5 681.137L866.483 476.335L866.469 261.501Q738.841 260.803 611.212 261.419L509.252 261.395C491.934 261.38 474.455 260.742 457.154 261.394Z"/>
	<path fill="#B7D5DC" transform="scale(0.246094 0.246094)" d="M160.279 257.573L160.287 239.472C160.295 235.117 160.222 229.221 163.811 226.07C165.56 224.534 169.515 224.505 171.803 224.409C182.269 223.97 192.921 224.34 203.412 224.276L278.622 224.123L483.392 224.194L722.178 224.058L808.162 224.133C824.024 224.162 839.982 223.829 855.83 224.387C857.957 224.462 862.253 224.26 863.845 225.734C866.7 228.377 866.695 233.1 866.688 236.702C866.674 243.677 866.469 250.655 866.504 257.629L441.96 257.516L160.279 257.573ZM211.6 234.513C209.241 235.404 207.383 236.346 206.27 238.735C205.437 240.521 205.436 242.535 206.207 244.341C207.1 246.432 208.845 248.175 210.982 248.98C212.289 249.472 213.644 249.57 215.025 249.584C217.514 248.558 219.645 247.42 220.631 244.749C221.327 242.863 221.179 240.849 220.252 239.071C219.181 237.015 217.159 235.42 214.915 234.837C213.821 234.552 212.726 234.5 211.6 234.513ZM244.22 234.564C241.593 235.206 239.415 236.072 237.997 238.526Q237.839 238.801 237.709 239.091Q237.579 239.381 237.479 239.683Q237.38 239.984 237.311 240.295Q237.242 240.605 237.205 240.92Q237.168 241.236 237.163 241.553Q237.157 241.871 237.184 242.187Q237.211 242.504 237.27 242.816Q237.329 243.128 237.419 243.433C238.043 245.612 239.648 247.582 241.683 248.594C243.026 249.263 244.49 249.613 245.97 249.793C248.517 248.693 250.512 247.394 251.676 244.767C252.478 242.958 252.585 240.962 251.778 239.137C250.968 237.302 249.249 235.833 247.341 235.229C246.334 234.911 245.259 234.742 244.22 234.564ZM178.93 235.057C176.574 236.527 174.669 237.908 174.124 240.8C173.759 242.743 174.157 244.721 175.341 246.312C176.623 248.032 178.742 249.152 180.864 249.381C181.992 249.503 183.055 249.381 184.168 249.182C186.538 247.755 188.419 246.259 189.13 243.455Q189.218 243.12 189.271 242.778Q189.324 242.436 189.34 242.09Q189.356 241.744 189.336 241.398Q189.316 241.052 189.26 240.71Q189.204 240.369 189.112 240.035Q189.021 239.701 188.894 239.378Q188.768 239.056 188.608 238.748Q188.449 238.441 188.258 238.152C187.143 236.49 185.23 235.309 183.27 234.952C181.822 234.688 180.368 234.824 178.93 235.057Z"/>
	<path fill="#3A3A35" transform="scale(0.246094 0.246094)" d="M215.025 249.584C213.644 249.57 212.289 249.472 210.982 248.98C208.845 248.175 207.1 246.432 206.207 244.341C205.436 242.535 205.437 240.521 206.27 238.735C207.383 236.346 209.241 235.404 211.6 234.513C212.726 234.5 213.821 234.552 214.915 234.837C217.159 235.42 219.181 237.015 220.252 239.071C221.179 240.849 221.327 242.863 220.631 244.749C219.645 247.42 217.514 248.558 215.025 249.584ZM211.414 238.949C210.453 240.213 210.014 240.872 209.944 242.534C210.4 243.699 210.548 244.329 211.76 244.926C212.903 245.489 214.074 245.33 215.274 245.144C216.176 243.881 216.63 243.172 216.722 241.556C216.223 240.464 215.755 239.583 214.49 239.22C213.525 238.943 212.415 238.943 211.414 238.949Z"/>
	<path fill="#3A3A35" transform="scale(0.246094 0.246094)" d="M245.97 249.793C244.49 249.613 243.026 249.263 241.683 248.594C239.648 247.582 238.043 245.612 237.419 243.433Q237.329 243.128 237.27 242.816Q237.211 242.504 237.184 242.187Q237.157 241.871 237.163 241.553Q237.168 241.236 237.205 240.92Q237.242 240.605 237.311 240.295Q237.38 239.985 237.479 239.683Q237.579 239.381 237.709 239.091Q237.839 238.801 237.997 238.526C239.415 236.072 241.593 235.206 244.22 234.564C245.259 234.742 246.334 234.911 247.341 235.229C249.249 235.833 250.968 237.302 251.778 239.137C252.585 240.962 252.478 242.958 251.676 244.767C250.512 247.394 248.517 248.693 245.97 249.793ZM242.414 238.916C241.835 240.196 241.096 241.605 241.468 243.053C241.742 244.123 242.395 244.858 243.461 245.201C244.464 245.525 245.644 245.243 246.624 244.982C247.413 243.638 247.924 242.814 247.871 241.189C247.241 240.081 246.817 239.406 245.513 239.044C244.577 238.785 243.372 238.882 242.414 238.916Z"/>
	<path fill="#3A3A35" transform="scale(0.246094 0.246094)" d="M184.168 249.182C183.055 249.381 181.992 249.503 180.864 249.381C178.742 249.152 176.623 248.032 175.341 246.312C174.157 244.721 173.759 242.743 174.124 240.8C174.669 237.908 176.574 236.527 178.93 235.057C180.368 234.824 181.822 234.688 183.27 234.952C185.23 235.309 187.143 236.49 188.258 238.152Q188.449 238.441 188.608 238.748Q188.768 239.056 188.894 239.378Q189.021 239.701 189.112 240.035Q189.204 240.369 189.26 240.71Q189.316 241.052 189.336 241.398Q189.356 241.744 189.34 242.09Q189.324 242.436 189.271 242.778Q189.218 243.12 189.13 243.455C188.419 246.259 186.538 247.755 184.168 249.182ZM179.897 238.919C179.048 240.116 178.21 241.235 178.378 242.8C178.528 244.184 179.144 244.452 180.179 245.159C181.232 245.267 182.008 245.306 183.041 245.059C184.098 243.699 184.655 242.922 184.835 241.188C184.396 240.151 184.188 239.525 182.999 239.119C182.1 238.812 180.848 238.864 179.897 238.919Z"/>
	<path fill="#B7D5DC" transform="scale(0.246094 0.246094)" d="M183.041 245.059C182.008 245.306 181.232 245.267 180.179 245.159C179.144 244.452 178.528 244.184 178.378 242.8C178.21 241.235 179.048 240.116 179.897 238.919C180.848 238.864 182.1 238.812 182.999 239.119C184.188 239.525 184.396 240.151 184.835 241.188C184.655 242.922 184.098 243.699 183.041 245.059Z"/>
	<path fill="#B7D5DC" transform="scale(0.246094 0.246094)" d="M215.274 245.144C214.074 245.33 212.903 245.489 211.76 244.926C210.548 244.329 210.4 243.699 209.944 242.534C210.014 240.872 210.453 240.213 211.414 238.949C212.415 238.943 213.525 238.943 214.49 239.22C215.755 239.583 216.223 240.464 216.722 241.556C216.63 243.172 216.176 243.881 215.274 245.144Z"/>
	<path fill="#B7D5DC" transform="scale(0.246094 0.246094)" d="M246.624 244.982C245.644 245.243 244.464 245.525 243.461 245.201C242.395 244.858 241.742 244.123 241.468 243.053C241.096 241.605 241.835 240.196 242.414 238.916C243.372 238.882 244.577 238.785 245.513 239.044C246.817 239.406 247.241 240.081 247.871 241.189C247.924 242.814 247.413 243.638 246.624 244.982Z"/>
	<path fill="#B7D5DC" transform="scale(0.246094 0.246094)" d="M160.058 261.488C182.363 261.085 204.749 261.484 227.063 261.464L351.384 261.341L417.436 261.211C430.611 261.15 444.003 260.65 457.154 261.394C474.455 260.742 491.934 261.38 509.252 261.395L611.212 261.419Q738.841 260.802 866.469 261.501L866.483 476.335C861.455 479.378 856.417 482.938 851.274 485.711C850.626 435.631 851.479 385.453 851.47 335.36C851.466 315.79 852.08 295.986 851.268 276.441C839.208 275.233 825.954 276.165 813.756 276.17L738.932 276.167L487.34 276.309L174.513 275.903C173.659 348.19 174.704 420.545 174.574 492.841L174.474 544.567C174.461 553.774 174.739 563.06 174.393 572.254C174.2 570.179 174.762 565.356 173.777 563.713C173.189 562.73 170.564 562.295 169.516 561.096C166.521 557.669 164.197 553.563 161.304 550.009C160.764 554.83 161.257 559.798 160.886 564.662C159.889 554.792 160.48 544.223 160.449 534.282L160.247 477.837L160.058 261.488Z"/>
	<path fill="#3A3A35" transform="scale(0.246094 0.246094)" d="M174.513 275.903L487.34 276.309L738.932 276.167L813.756 276.17C825.954 276.165 839.208 275.233 851.268 276.441C852.08 295.986 851.466 315.79 851.47 335.36C851.479 385.453 850.626 435.631 851.274 485.711Q850.824 532.002 851.04 578.293L851.283 773.855C827.549 774.044 803.46 773.091 779.772 774.161L509.158 774.648L425.952 774.615C411.292 774.585 396.091 773.756 381.476 774.742C367.743 775.704 353.581 775.061 339.797 775.094Q299.217 775.292 258.637 775.045L205.041 775.072C196.345 775.121 187.073 775.856 178.427 775.188C176.809 775.063 176.333 774.614 175.102 773.564C173.54 766.281 174.313 758.067 174.352 750.638L174.458 719.102L174.402 597.087Q174.574 584.67 174.393 572.254C174.739 563.06 174.461 553.774 174.474 544.567L174.574 492.841C174.704 420.545 173.659 348.19 174.513 275.903ZM458.914 279.953L265.692 280.005L209.918 280.008C199.477 279.981 188.947 279.663 178.515 279.961L178.499 561.229L178.489 609.102L178.452 771.022Q280.338 770.461 382.225 770.954L631.502 771.005L720.757 770.989C737.804 770.985 754.966 771.383 771.995 770.703C797.176 770.203 822.412 770.448 847.6 770.43C847.969 736.693 847.639 702.936 847.613 669.197L847.523 488.504L847.502 279.903C832.293 279.479 816.964 279.844 801.744 279.86L715.467 279.944L458.914 279.953Z"/>
	<path fill="#B7D5DC" transform="scale(0.246094 0.246094)" d="M178.515 279.961C188.947 279.663 199.477 279.981 209.918 280.008L265.692 280.005L458.914 279.953L715.467 279.944L801.744 279.86C816.964 279.844 832.293 279.479 847.502 279.903L847.523 488.504C838.459 493.082 828.699 498.561 818.918 501.444C818.954 506.604 819.307 512.024 818.653 517.147C817.769 506.931 818.504 495.994 818.511 485.711L818.546 423.023L818.548 344.416C818.55 329.944 817.975 315.211 818.878 300.78L468.116 300.639L287.106 300.543C261.06 300.573 234.946 300.122 208.911 300.555C207.769 351.974 208.558 403.604 208.497 455.043L208.471 495.846C208.474 503.086 207.43 512.404 209.214 519.37C210.998 520.759 213.111 520.923 215.3 521.062C226.143 521.752 237.462 520.944 248.362 520.96L322.934 521.038L553.517 521.138L638.076 521.1C651.555 521.107 665.332 520.501 678.781 521.113C671.728 522.622 660.188 521.652 652.597 521.65L570.286 521.588C568.879 521.575 565.045 520.84 564.278 522.347C563.867 523.155 563.98 523.979 563.986 524.857C561.894 529.517 559.644 543.024 559.949 548.338L560.384 548.873C553.905 548.829 530.536 547.578 525.864 549.299C522.599 556.255 524.982 607.421 524.481 619.267C520.974 621.736 518.058 625.231 514.957 628.198C511.125 631.864 506.849 635.143 502.435 638.076C502.04 639.811 501.816 641.504 501.628 643.273C500.895 621.568 501.507 599.616 501.524 577.886C501.531 568.821 502.348 558.981 501.225 550.048C498.838 548.657 494.105 548.79 491.373 548.751C470.492 548.457 449.557 548.807 428.672 548.82L299.128 548.848L241.575 548.826C231.355 548.828 219.848 547.748 209.858 549.721C206.496 553.473 208.104 578.894 208.147 584.889C199.165 580.969 187.157 565.797 178.499 561.229L178.515 279.961Z"/>
	<path fill="#3A3A35" transform="scale(0.246094 0.246094)" d="M208.911 300.555C234.946 300.122 261.06 300.573 287.106 300.543L468.116 300.639L818.878 300.78C817.975 315.211 818.55 329.944 818.548 344.416L818.546 423.023L818.511 485.711C818.504 495.994 817.769 506.931 818.653 517.147C818.274 518.82 818.252 519.154 817.01 520.434C812.854 522.108 694.482 520.946 678.781 521.113C665.332 520.501 651.555 521.107 638.076 521.1L553.517 521.138L322.934 521.038L248.362 520.96C237.462 520.944 226.143 521.752 215.3 521.062C213.111 520.923 210.998 520.759 209.214 519.37C207.43 512.404 208.474 503.086 208.471 495.846L208.497 455.043C208.558 403.604 207.769 351.974 208.911 300.555ZM475.104 304.04L212.553 303.914L212.551 436.977C212.536 463.73 212.22 490.517 212.518 517.267C227.823 517.651 243.188 517.347 258.502 517.32L337.235 517.266L564.45 517.511L814.98 517.432L814.992 501.943L815.054 304.057C784.08 303.486 753.007 304.014 722.022 304.026C718.427 310.095 704.395 329.592 699.03 333.26C693.321 337.163 682.273 339.588 675.495 341.952Q666.129 345.258 656.932 349.01C652.628 354.538 649.098 361.104 645.411 367.06Q633.517 386.175 622.177 405.623C631.579 413.164 642.218 419.498 652.305 426.068C658.514 430.112 664.657 434.885 671.326 438.12C681.813 436.207 696.537 429.469 707.058 425.526C717.751 421.519 731.777 417.808 741.267 411.759C748.93 406.875 755.26 396.253 760.842 389.054C768.019 379.796 775.6 370.834 782.867 361.64C786.8 356.663 790.369 351.036 794.663 346.396C796.197 344.737 797.592 343.418 799.919 343.311L800.762 344.235C801.099 346.576 800.17 348.354 798.937 350.286C793.67 358.538 786.428 366.296 780.35 374.008C771.478 385.266 756.332 407.755 745.759 415.582C734.803 423.691 714.636 429.202 701.445 434.017C691.797 437.538 681.851 441.878 671.85 444.197C659.356 440.274 630.887 418.838 618.499 410.3C608.158 420.728 599.596 433.171 588.657 442.953C580.053 442.83 562.512 443.414 554.726 441.449C552.737 440.947 550.771 439.681 548.989 438.682C537.603 431.287 525.717 424.608 514.013 417.728C504.628 423.44 496.322 430.896 487.46 437.363C465.753 453.202 443.705 469.434 420.524 483.053C414.342 481.979 407.916 479.312 401.827 477.559Q374.813 469.763 347.961 461.424C324.784 473.273 302.491 486.841 279.409 498.927C269.908 503.902 267.278 505.259 256.519 503.446C253.679 502.967 250.725 502.59 247.985 501.67C246.087 501.033 245.006 500.338 244.095 498.544C244.443 497.097 244.615 496.881 245.644 495.793C249.735 494.501 260.774 498.116 265.558 498.76C273.112 495.793 280.482 491.353 287.666 487.558C307.573 477.045 326.897 465.479 346.859 455.095L419.295 476.782C426.769 473.087 433.951 467.511 440.87 462.847C454.719 453.512 468.688 444.102 481.954 433.949C492.134 426.157 502.33 417.154 513.841 411.444C519.869 414.038 525.366 417.757 531.007 421.078C539.647 426.166 548.301 431.19 556.871 436.398Q571.597 436.553 586.318 436.989C596.438 427.874 603.936 416.021 613.775 406.596C603.738 399.621 594.543 390.907 585.268 382.946C571.984 382.079 558.471 381.881 545.156 381.622C539.26 381.507 532.343 382.122 526.597 381.033C521.125 379.996 467.585 350.313 466.054 347.543C465.669 346.847 465.976 346.284 466.12 345.557C466.708 344.891 467.142 344.394 468.023 344.107C468.932 343.811 469.876 343.801 470.77 344.132C474.562 345.537 478.62 348.643 482.162 350.687Q493.214 356.985 504.424 362.995C511.888 367.088 519.466 371.059 526.689 375.565L587.278 377.132C590.74 379.458 593.968 382.549 597.175 385.246Q607.264 393.771 617.251 402.415C627.827 382.48 641.273 363.938 652.931 344.625C662.665 338.857 692.708 331.804 698.09 326.561C704.644 320.176 709.607 311.334 715.281 304.066L475.104 304.04Z"/>
	<path fill="#B7D5DC" transform="scale(0.246094 0.246094)" d="M212.553 303.914L475.104 304.04L715.281 304.066C709.607 311.334 704.644 320.176 698.09 326.561C692.708 331.804 662.665 338.857 652.931 344.625C641.273 363.938 627.827 382.48 617.251 402.415Q607.264 393.771 597.175 385.246C593.968 382.549 590.74 379.458 587.278 377.132L526.689 375.565C519.466 371.059 511.888 367.088 504.424 362.995Q493.214 356.985 482.162 350.687C478.62 348.643 474.562 345.537 470.77 344.132C469.876 343.801 468.932 343.811 468.023 344.107C467.142 344.394 466.708 344.891 466.12 345.557C465.976 346.284 465.669 346.847 466.054 347.543C467.585 350.313 521.125 379.996 526.597 381.033C532.343 382.122 539.26 381.507 545.156 381.622C558.471 381.881 571.984 382.079 585.268 382.946C594.543 390.907 603.738 399.621 613.775 406.596C603.936 416.021 596.438 427.874 586.318 436.989Q571.597 436.553 556.871 436.398C548.301 431.19 539.647 426.166 531.007 421.078C525.366 417.757 519.869 414.038 513.841 411.444C502.33 417.154 492.134 426.157 481.954 433.949C468.688 444.102 454.719 453.512 440.87 462.847C433.951 467.511 426.769 473.087 419.295 476.782L346.859 455.095C326.897 465.479 307.573 477.045 287.666 487.558C280.482 491.353 273.112 495.793 265.558 498.76C260.774 498.116 249.735 494.501 245.644 495.793C244.615 496.881 244.443 497.097 244.095 498.544C245.006 500.338 246.087 501.033 247.985 501.67C250.725 502.59 253.679 502.967 256.519 503.446C267.278 505.259 269.908 503.902 279.409 498.927C302.491 486.841 324.784 473.273 347.961 461.424Q374.813 469.763 401.827 477.559C407.916 479.312 414.342 481.979 420.524 483.053C443.705 469.434 465.753 453.202 487.46 437.363C496.322 430.896 504.628 423.44 514.013 417.728C525.717 424.608 537.603 431.287 548.989 438.682C550.771 439.681 552.737 440.947 554.726 441.449C562.512 443.414 580.053 442.83 588.657 442.953C599.596 433.171 608.158 420.728 618.499 410.3C630.887 418.838 659.356 440.274 671.85 444.197C681.851 441.878 691.797 437.538 701.445 434.017C714.636 429.202 734.803 423.691 745.759 415.582C756.332 407.755 771.478 385.266 780.35 374.008C786.428 366.296 793.67 358.538 798.937 350.286C800.17 348.354 801.099 346.576 800.762 344.235L799.919 343.311C797.592 343.418 796.197 344.737 794.663 346.396C790.369 351.036 786.8 356.663 782.867 361.64C775.6 370.834 768.019 379.796 760.842 389.054C755.26 396.253 748.93 406.875 741.267 411.759C731.777 417.808 717.751 421.519 707.058 425.526C696.537 429.469 681.813 436.207 671.326 438.12C664.657 434.885 658.514 430.112 652.305 426.068C642.218 419.498 631.579 413.164 622.177 405.623Q633.517 386.175 645.411 367.06C649.098 361.104 652.628 354.538 656.932 349.01Q666.129 345.258 675.495 341.952C682.273 339.588 693.321 337.163 699.03 333.26C704.395 329.592 718.427 310.095 722.022 304.026C753.007 304.014 784.08 303.486 815.054 304.057L814.992 501.943C808.348 502.742 801.667 505.417 795.091 506.823C783.362 509.33 771.185 510.415 759.228 511.058C716.254 513.372 673.377 501.959 632.232 491.039L579.097 477.008C572.643 475.274 566.291 473.246 559.798 471.653C564.088 486.319 564.613 502.353 564.45 517.511L337.235 517.266L258.502 517.32C243.188 517.347 227.823 517.651 212.518 517.267C212.22 490.517 212.536 463.73 212.551 436.977L212.553 303.914ZM239.479 334.01C238.35 338.738 238.277 347.875 239.863 352.477C240.836 353.37 244.493 353.135 245.899 353.162C271.627 353.651 297.442 353.124 323.181 353.122L354.465 353.166C360.057 353.21 365.71 353.534 371.293 353.32C371.365 353.317 371.436 353.308 371.508 353.302C373.532 349.921 373.37 340.019 372.362 336.134C372.084 335.059 372.052 334.899 371.129 334.226C365.753 333.664 360.216 333.927 354.814 333.934L328.017 333.966L239.479 334.01ZM240.039 390.462C238.021 393.854 238.075 404.642 239.135 408.557C239.289 409.125 239.367 409.727 239.944 410.002C241.366 410.678 244.015 410.512 245.607 410.533C274.403 410.92 303.236 410.636 332.037 410.647L358.68 410.717C362.875 410.751 367.422 411.234 371.585 410.867C373.72 407.01 373.565 397.657 372.484 393.394C372.19 392.235 372.014 391.92 371.14 391.181C361.542 389.912 344.868 390.846 334.672 390.825L277.143 390.734C264.789 390.731 252.382 390.972 240.039 390.462Z"/>
	<path fill="#3A3A35" transform="scale(0.246094 0.246094)" d="M371.508 353.302C371.436 353.308 371.365 353.317 371.293 353.32C365.71 353.534 360.057 353.21 354.465 353.166L323.181 353.122C297.442 353.124 271.627 353.651 245.899 353.162C244.493 353.135 240.836 353.37 239.863 352.477C238.277 347.875 238.35 338.738 239.479 334.01L328.017 333.966L354.814 333.934C360.216 333.927 365.753 333.664 371.129 334.226C372.052 334.899 372.084 335.059 372.362 336.134C373.37 340.019 373.532 349.921 371.508 353.302ZM249.756 337.745L242.763 337.807L242.844 349.362L363.095 349.478C365.004 349.495 366.183 349.76 367.863 348.807C369.65 345.457 368.491 341.347 368.556 337.652L249.756 337.745Z"/>
	<path fill="#B7D5DC" transform="scale(0.246094 0.246094)" d="M242.763 337.807L249.756 337.745L368.556 337.652C368.491 341.347 369.65 345.457 367.863 348.807C366.183 349.76 365.004 349.495 363.095 349.478L242.844 349.362L242.763 337.807Z"/>
	<path fill="#3A3A35" transform="scale(0.246094 0.246094)" d="M371.585 410.867C367.422 411.234 362.875 410.751 358.68 410.717L332.037 410.647C303.236 410.636 274.403 410.92 245.607 410.533C244.015 410.512 241.366 410.678 239.944 410.002C239.367 409.727 239.289 409.125 239.135 408.557C238.075 404.642 238.021 393.854 240.039 390.462C252.382 390.972 264.789 390.731 277.143 390.734L334.672 390.825C344.868 390.846 361.542 389.912 371.14 391.181C372.014 391.92 372.19 392.235 372.484 393.394C373.565 397.657 373.72 407.01 371.585 410.867ZM242.617 394.543C242.624 398.663 242.46 402.866 242.877 406.966L368.862 406.921C368.918 402.858 368.989 398.836 368.607 394.784C326.636 394.199 284.595 394.449 242.617 394.543Z"/>
	<path fill="#B7D5DC" transform="scale(0.246094 0.246094)" d="M242.877 406.966C242.46 402.866 242.624 398.663 242.617 394.543C284.595 394.449 326.636 394.199 368.607 394.784C368.989 398.836 368.918 402.858 368.862 406.921L242.877 406.966Z"/>
	<path fill="#F8F6EE" transform="scale(0.246094 0.246094)" d="M559.798 471.653C566.291 473.246 572.643 475.274 579.097 477.008L632.232 491.039C673.377 501.959 716.254 513.372 759.228 511.058C771.185 510.415 783.362 509.33 795.091 506.823C801.667 505.417 808.348 502.742 814.992 501.943L814.98 517.432L564.45 517.511C564.613 502.353 564.088 486.319 559.798 471.653Z"/>
	<path fill="#F8F6EE" transform="scale(0.246094 0.246094)" d="M851.274 485.711C856.417 482.938 861.455 479.378 866.483 476.335L866.5 681.137L866.54 747.779C866.553 759.219 867.054 770.87 866.495 782.274C866.387 784.472 866.282 787.3 864.658 788.964C863.491 790.16 860.919 790.2 859.312 790.311C847.544 791.131 835.304 790.416 823.496 790.368C805.018 790.293 786.471 790.52 768 789.997C768.014 784.932 769.282 779.548 770.275 774.591C773.446 774.594 776.638 774.716 779.772 774.161C803.46 773.091 827.549 774.044 851.283 773.855L851.04 578.293Q850.824 531.999 851.274 485.711Z"/>
	<path fill="#F8F6EE" transform="scale(0.246094 0.246094)" d="M818.918 501.444C828.699 498.561 838.459 493.082 847.523 488.504L847.613 669.197C847.639 702.936 847.969 736.693 847.6 770.43C822.412 770.448 797.176 770.203 771.995 770.703C770.54 761.858 768.852 753.436 766.311 744.83C775.498 745.115 810.778 746.199 817.787 743.792C819.57 742.003 818.596 723.928 818.61 720.161L818.686 615.208C818.685 595.067 819.267 574.659 818.428 554.542C818.389 553.602 818.367 550.372 817.688 549.847C816.928 549.259 815.987 549.113 815.055 549.052C806.494 548.497 797.583 548.981 788.997 548.971L734.984 548.937L571.878 548.908L570.619 548.279C567.022 542.381 565.907 531.769 563.986 524.857C563.98 523.979 563.867 523.155 564.278 522.347C565.045 520.84 568.879 521.575 570.286 521.588L652.597 521.65C660.188 521.652 671.728 522.622 678.781 521.113C694.482 520.946 812.854 522.108 817.01 520.434C818.252 519.154 818.274 518.82 818.653 517.147C819.307 512.024 818.954 506.604 818.918 501.444Z"/>
	<path fill="#FEE5A7" transform="scale(0.246094 0.246094)" d="M560.384 548.873L559.949 548.338C559.644 543.024 561.894 529.517 563.986 524.857C565.907 531.769 567.022 542.381 570.619 548.279L571.878 548.908L560.384 548.873Z"/>
	<path fill="#3A3A35" transform="scale(0.246094 0.246094)" d="M208.147 584.889C208.104 578.894 206.496 553.473 209.858 549.721C219.848 547.748 231.355 548.828 241.575 548.826L299.128 548.848L428.672 548.82C449.557 548.807 470.492 548.457 491.373 548.751C494.105 548.79 498.838 548.657 501.225 550.048C502.348 558.981 501.531 568.821 501.524 577.886C501.507 599.616 500.895 621.568 501.628 643.273L501.545 715.569C501.547 722.358 502.521 737.723 501.28 743.529C499.471 744.38 497.494 744.52 495.518 744.599C485.526 744.998 475.386 744.65 465.382 744.65C434.903 744.65 402.874 743.918 372.603 745.164C372.219 745.199 371.833 745.231 371.447 745.246C360.237 745.687 348.889 745.375 337.664 745.366L276.358 745.366L234.241 745.495C227.45 745.523 220.218 746.034 213.475 745.474C211.944 745.347 210.765 744.943 209.654 743.862C208.612 742.849 208.383 742.157 208.216 740.754C207.669 736.153 207.963 731.284 207.961 726.647L207.975 702.532L208.066 622.841L208.147 584.889ZM212.267 552.634C211.723 560.992 212.143 569.56 212.185 577.938L212.366 623.578L212.252 700.74C212.204 714.278 211.616 727.989 212.151 741.502L369.744 741.152C384.677 741.684 399.811 741.209 414.76 741.209L498.01 741.137C498.582 723.927 497.991 706.569 498.053 689.335C498.112 672.853 498.885 656.101 497.979 639.647C497.597 629.431 497.884 619.096 497.907 608.869L497.959 552.808C485.875 552.122 473.527 552.619 461.418 552.618L393.542 552.578C333.139 552.524 272.66 551.848 212.267 552.634Z"/>
	<path fill="#3A3A35" transform="scale(0.246094 0.246094)" d="M524.481 619.267C524.982 607.421 522.599 556.255 525.864 549.299C530.536 547.578 553.905 548.829 560.384 548.873L571.878 548.908L734.984 548.937L788.997 548.971C797.583 548.981 806.494 548.497 815.055 549.052C815.987 549.113 816.928 549.259 817.688 549.847C818.367 550.372 818.389 553.602 818.428 554.542C819.267 574.659 818.685 595.067 818.686 615.208L818.61 720.161C818.596 723.928 819.57 742.003 817.787 743.792C810.778 746.199 775.498 745.115 766.311 744.83C759.562 744.143 752.371 744.548 745.578 744.532L705.754 744.482L580.972 744.435L546.399 744.493C540.695 744.502 534.375 745.025 528.74 744.331C527.253 744.148 526.375 743.435 525.313 742.457C524.589 740.843 524.572 739.02 524.525 737.272C524.158 723.588 524.595 709.794 524.63 696.096L524.481 619.267ZM558.219 552.47C548.177 552.449 538.121 552.327 528.08 552.418C528.071 572.531 527.176 593.062 528.335 613.128L528.325 696.708C528.296 711.405 527.972 726.185 528.428 740.872C607.414 740.955 686.471 740.253 765.448 741.183C781.942 741.7 798.517 741.41 815.021 741.44L815.04 552.506C787.964 551.769 760.705 552.359 733.61 552.334L571.876 552.489L558.219 552.47Z"/>
	<path fill="#FEE5A7" transform="scale(0.246094 0.246094)" d="M160.886 564.662C161.257 559.798 160.764 554.83 161.304 550.009C164.197 553.563 166.521 557.669 169.516 561.096C170.564 562.295 173.189 562.73 173.777 563.713C174.762 565.356 174.2 570.179 174.393 572.254Q174.575 584.67 174.402 597.087C168.894 596.719 165.079 584.913 160.931 581.249C160.846 575.722 160.691 570.188 160.886 564.662Z"/>
	<path fill="#B7D5DC" transform="scale(0.246094 0.246094)" d="M212.366 623.578L212.185 577.938C212.143 569.56 211.723 560.992 212.267 552.634C272.66 551.848 333.139 552.524 393.542 552.578L461.418 552.618C473.527 552.619 485.875 552.122 497.959 552.808L497.907 608.869C497.884 619.096 497.597 629.431 497.979 639.647C491.925 644.065 484.712 649.423 476.987 650.137C476.188 644.056 467.948 613.588 464.842 609.65C463.516 607.969 461.912 607.764 459.884 607.452C454.077 606.558 447.791 607.128 441.912 606.98Q429.063 606.595 416.305 605.025C413.665 595.167 412.204 579.864 407.494 571.383C405.655 569.865 403.323 569.484 401.004 569.201C394.428 568.399 387.389 568.715 380.741 568.493Q353.715 567.645 326.675 567.604C319.819 573.417 308.933 593.711 304.723 602.427C292.196 602.481 264.273 600.807 254.03 607.1C243.346 613.665 240.645 627.173 238.073 638.479C237.146 642.452 235.694 646.903 238.147 650.638C239.872 653.264 242.922 654.308 245.887 654.765C252.094 655.722 259.169 655.12 265.481 655.091C268.148 662.244 270.9 668.544 278.247 672.023C283.781 674.643 289.608 674.52 295.35 672.804L296.029 672.606L296.435 672.482C300.199 676.992 307.996 679.76 313.067 682.804C318.215 685.893 336.919 698.6 339.248 703.028Q308.417 702.851 277.586 703.072C267.484 703.105 256.804 702.353 246.785 703.279C245.225 703.423 243.783 703.695 242.686 704.935C241.832 705.901 241.53 707.216 241.805 708.467C242.147 710.03 243.323 711.328 244.738 712.017C245.718 712.495 246.694 712.601 247.773 712.628C258.627 712.899 269.73 712.283 280.625 712.264L350.019 712.387C357.506 721.707 363.861 730.709 369.744 741.152L212.151 741.502C211.616 727.989 212.204 714.278 212.252 700.74L212.366 623.578Z"/>
	<path fill="#B7D5DC" transform="scale(0.246094 0.246094)" d="M528.08 552.418C538.121 552.327 548.177 552.449 558.219 552.47C554.095 570.574 544.641 590.835 534.13 606.008C532.455 608.425 530.722 611.416 528.335 613.128C527.176 593.062 528.071 572.531 528.08 552.418Z"/>
	<path fill="#FEE5A7" transform="scale(0.246094 0.246094)" d="M558.219 552.47L571.876 552.489C576.062 560.471 581.804 567.545 585.863 575.55C583.065 575.585 580.232 575.242 578.094 577.382C575.743 582.586 578.201 688.258 577.164 706.601C574.721 706.604 569.562 706.025 567.582 707.244C567.575 708.276 567.361 708.082 568.025 708.719C569.088 709.739 570.108 709.788 571.501 709.894C577.951 710.382 584.631 710.039 591.101 710.019L622.277 710.035L739.841 710.036C740.109 711.998 742.861 714.074 744.25 715.422C752.439 723.368 759.764 731.193 765.448 741.183C686.471 740.253 607.414 740.955 528.428 740.872C527.972 726.185 528.296 711.405 528.325 696.708L528.335 613.128C530.722 611.416 532.455 608.425 534.13 606.008C544.641 590.835 554.095 570.574 558.219 552.47Z"/>
	<path fill="#F8F6EE" transform="scale(0.246094 0.246094)" d="M571.876 552.489L733.61 552.334C760.705 552.359 787.964 551.769 815.04 552.506L815.021 741.44C798.517 741.41 781.942 741.7 765.448 741.183C759.764 731.193 752.439 723.368 744.25 715.422C742.861 714.074 740.109 711.998 739.841 710.036L771.112 710.144C777.146 710.162 783.327 710.435 789.341 710.038C790.416 709.289 790.543 709.27 790.962 708.045L790.341 707.181C787.247 706.614 784.073 706.689 780.938 706.636C780.734 697.426 782.001 670.793 780.17 663.797C779.149 662.707 778.247 662.325 776.793 662.11C773.704 661.654 763.758 661.302 761.474 663.266C758.832 665.538 760.066 701.374 760.09 706.61L736.597 706.625C736.244 696.31 737.903 649 735.219 643.228C734.099 642.461 733.229 642.035 731.857 641.915C729.012 641.667 718.012 641.421 716.406 642.891C714.027 645.068 715.197 677.947 715.112 683.75C704.512 676.63 696.196 665.537 686.271 657.442C675.121 648.349 661.275 642.995 648.822 635.982C648.77 632.44 649.598 623.732 647.109 621.108C644.708 618.577 631.438 620.036 627.436 620.053C616.693 611.532 608.579 600.924 599.635 590.658C599.636 586.823 599.751 582.946 599.35 579.13C599.114 578.323 598.737 577.554 598.406 576.781C595.683 574.368 589.32 575.473 585.863 575.55C581.804 567.545 576.062 560.471 571.876 552.489Z"/>
	<path fill="#FEE5A7" transform="scale(0.246094 0.246094)" d="M178.499 561.229C187.157 565.797 199.165 580.969 208.147 584.889L208.066 622.841C197.421 620.368 188.74 612.357 178.489 609.102L178.499 561.229Z"/>
	<path fill="#3D3E3C" transform="scale(0.246094 0.246094)" d="M238.073 638.479C240.645 627.173 243.346 613.665 254.03 607.1C264.273 600.807 292.196 602.481 304.723 602.427C308.933 593.711 319.819 573.417 326.675 567.604Q353.715 567.645 380.741 568.493C387.389 568.715 394.428 568.399 401.004 569.201C403.323 569.484 405.655 569.865 407.494 571.383C412.204 579.864 413.665 595.167 416.305 605.025Q429.063 606.595 441.912 606.98C447.791 607.128 454.077 606.558 459.884 607.452C461.912 607.764 463.516 607.969 464.842 609.65C467.948 613.588 476.188 644.056 476.987 650.137C475.574 652.391 474.461 653.451 471.824 654.084C463.802 656.008 452.696 654.287 444.118 654.804C442.08 662.262 438.62 668.647 431.655 672.632C426.078 675.822 419.237 676.368 413.092 674.659C406.814 672.912 401.724 668.709 398.643 662.988C397.278 660.454 396.491 657.726 395.866 654.93L342.863 654.984C332.64 654.998 322.343 654.776 312.131 655.191C309.652 662.692 306.369 667.492 299.217 671.134Q297.837 671.831 296.435 672.482L296.029 672.606L295.35 672.804C289.608 674.52 283.781 674.643 278.247 672.023C270.9 668.544 268.148 662.244 265.481 655.091C259.169 655.12 252.094 655.722 245.887 654.765C242.922 654.308 239.872 653.264 238.147 650.638C235.694 646.903 237.146 642.452 238.073 638.479ZM329.031 572.168C323.643 576.742 312.993 595.532 309.839 602.212Q328.803 602.121 347.766 602.339L366.267 602.477C366.461 592.66 366.835 582.788 366.777 572.971C354.343 572.654 341.439 571.575 329.031 572.168ZM371.475 573.009L370.727 602.544C384.334 602.725 397.792 603.577 411.366 604.448C409.011 594.157 406.721 583.819 404.149 573.582Q387.81 573.417 371.475 573.009ZM294.879 606.731C285.41 606.954 268.824 606.246 260.13 609Q259.016 609.346 257.954 609.83Q256.892 610.313 255.9 610.927Q254.907 611.54 253.999 612.273Q253.091 613.006 252.283 613.847C246.524 619.808 241.171 636.889 241.499 644.937C241.557 646.366 241.839 648.02 242.825 649.127C245.376 651.992 260.756 650.645 264.818 650.602C264.941 644.056 266.983 638.292 271.864 633.711C276.585 629.281 283.107 627.175 289.521 627.396C295.849 627.615 302.189 630.292 306.525 634.95C310.561 639.284 312.241 644.826 312.788 650.61Q354.258 651.079 395.726 650.465C396.321 644.644 398.28 640.031 402.306 635.722C407.508 630.868 413.205 627.959 420.507 628.263C426.943 628.531 433.199 631.166 437.569 635.959Q438.236 636.703 438.839 637.499Q439.442 638.295 439.979 639.138Q440.515 639.98 440.981 640.864Q441.447 641.748 441.838 642.667Q442.23 643.586 442.546 644.533Q442.861 645.481 443.098 646.452Q443.335 647.422 443.492 648.408Q443.648 649.395 443.724 650.391Q457.828 650.414 471.928 650.062C470.463 639.007 465.368 622.204 460.766 612.013C452.066 611.612 443.356 611.862 434.659 611.403C420.257 610.643 405.94 608.76 391.525 607.977C359.566 606.24 326.864 606.029 294.879 606.731ZM288.346 632.186C282.497 632.75 277.258 634.639 273.455 639.373C270.356 643.231 269.312 648.135 269.965 652.989C270.675 658.263 273.23 663.194 277.624 666.311C281.604 669.133 285.758 669.687 290.517 669.512C297.011 667.68 302.743 664.513 306.033 658.335C308.259 654.155 308.59 649.461 307.14 644.967Q307.002 644.529 306.842 644.099Q306.682 643.669 306.501 643.247Q306.319 642.826 306.116 642.414Q305.913 642.002 305.689 641.601Q305.465 641.2 305.222 640.812Q304.978 640.423 304.714 640.047Q304.451 639.671 304.169 639.309Q303.886 638.947 303.586 638.6Q303.286 638.253 302.968 637.921Q302.65 637.59 302.316 637.275Q301.982 636.961 301.632 636.663Q301.282 636.366 300.918 636.087Q300.553 635.808 300.175 635.548Q299.796 635.288 299.405 635.048Q299.014 634.807 298.611 634.587Q298.209 634.367 297.795 634.168C294.853 632.75 291.615 632.006 288.346 632.186ZM417.385 633.157C411.73 634.284 406.822 636.997 403.554 641.873Q403.3 642.249 403.066 642.638Q402.831 643.026 402.617 643.427Q402.403 643.827 402.21 644.237Q402.017 644.648 401.845 645.068Q401.673 645.488 401.522 645.916Q401.372 646.344 401.244 646.779Q401.116 647.214 401.01 647.656Q400.904 648.097 400.821 648.543Q400.738 648.989 400.678 649.439Q400.618 649.889 400.581 650.341Q400.544 650.794 400.531 651.247Q400.517 651.701 400.526 652.154Q400.536 652.608 400.569 653.061Q400.602 653.513 400.658 653.964Q400.714 654.414 400.792 654.861Q400.871 655.308 400.973 655.75C402.122 660.927 405.311 665.646 409.934 668.317C413.819 670.561 417.746 670.839 422.108 670.756C427.392 670.066 431.869 668.062 435.151 663.719C438.29 659.565 439.522 654.094 438.681 648.974Q438.602 648.486 438.499 648.003Q438.395 647.52 438.266 647.043Q438.137 646.566 437.984 646.097Q437.831 645.627 437.654 645.166Q437.476 644.705 437.275 644.254Q437.074 643.802 436.85 643.362Q436.626 642.922 436.38 642.494Q436.133 642.065 435.865 641.651Q435.596 641.236 435.307 640.836Q435.017 640.435 434.707 640.051Q434.397 639.666 434.068 639.298Q433.738 638.93 433.39 638.579Q433.042 638.228 432.677 637.896Q432.311 637.564 431.928 637.251Q431.546 636.939 431.148 636.646Q430.75 636.354 430.337 636.082C426.403 633.513 422.01 632.796 417.385 633.157Z"/>
	<path fill="#B7D5DC" transform="scale(0.246094 0.246094)" d="M309.839 602.212C312.993 595.532 323.643 576.742 329.031 572.168C341.439 571.575 354.343 572.654 366.777 572.971C366.835 582.788 366.461 592.66 366.267 602.477L347.766 602.339Q328.803 602.121 309.839 602.212Z"/>
	<path fill="#B7D5DC" transform="scale(0.246094 0.246094)" d="M370.727 602.544L371.475 573.009Q387.81 573.417 404.149 573.582C406.721 583.819 409.011 594.157 411.366 604.448C397.792 603.577 384.334 602.725 370.727 602.544Z"/>
	<path fill="#33332F" transform="scale(0.246094 0.246094)" d="M577.164 706.601C578.201 688.258 575.743 582.586 578.094 577.382C580.232 575.242 583.065 575.585 585.863 575.55C589.32 575.473 595.683 574.368 598.406 576.781C598.737 577.554 599.114 578.323 599.35 579.13C598.874 585.261 599.097 591.529 599.08 597.684L599.017 630.058C598.988 655.488 598.418 681.078 599.065 706.494L627.407 706.535C627.383 677.724 627 648.859 627.436 620.053C631.438 620.036 644.708 618.577 647.109 621.108C649.598 623.732 648.77 632.44 648.822 635.982C648.438 659.482 648.821 683.041 648.92 706.545L670.944 706.557C670.922 698.943 669.766 677.525 671.849 671.455C673.888 669.931 686.65 670.112 689.66 670.586C690.522 670.722 691.068 670.955 691.717 671.561C693.716 677.994 692.552 698.801 692.52 706.578L715.132 706.596C715.14 699.014 715.435 691.318 715.112 683.75C715.197 677.947 714.027 645.068 716.406 642.891C718.012 641.421 729.012 641.667 731.857 641.915C733.229 642.035 734.099 642.461 735.219 643.228C737.903 649 736.244 696.31 736.597 706.625L760.09 706.61C760.066 701.374 758.832 665.538 761.474 663.266C763.758 661.302 773.704 661.654 776.793 662.11C778.247 662.325 779.149 662.707 780.17 663.797C782.001 670.793 780.734 697.426 780.938 706.636C784.073 706.689 787.247 706.614 790.341 707.181L790.962 708.045C790.543 709.27 790.416 709.289 789.341 710.038C783.327 710.435 777.146 710.162 771.112 710.144L739.841 710.036L622.277 710.035L591.101 710.019C584.631 710.039 577.951 710.382 571.501 709.894C570.108 709.788 569.088 709.739 568.025 708.719C567.361 708.082 567.575 708.276 567.582 707.244C569.562 706.025 574.721 706.604 577.164 706.601ZM631.15 623.589C630.18 651.112 630.728 678.993 630.838 706.541L645.478 706.554L645.375 649.623C645.361 641.312 646.265 631.76 645.12 623.597L631.15 623.589ZM732.606 646.324C730.483 644.522 721.756 645.507 718.759 645.582C718.395 658.566 718.47 671.623 718.648 684.61C718.22 691.865 718.627 699.356 718.651 706.636L733.004 706.616L732.971 668.129C732.964 660.937 733.348 653.469 732.606 646.324ZM580.968 579.131C580.446 594.609 580.752 610.208 580.748 625.699L580.853 706.429L594.967 706.464L595.754 705.856C596.261 701.642 595.878 697.201 595.875 692.949L595.862 668.102L595.521 579.215Q588.245 579.089 580.968 579.131ZM764.838 665.715C764.001 666.705 763.76 667.016 763.591 668.35C763.029 672.793 763.446 677.79 763.46 682.286C763.484 690.384 763.382 698.509 763.569 706.604L776.551 706.657L777.278 706.193C777.94 701.865 777.554 697.06 777.536 692.668Q777.518 679.298 777.093 665.934C773.007 665.805 768.927 665.664 764.838 665.715ZM674.598 673.933L674.602 706.557L689.041 706.569L689.047 673.889C684.247 673.88 679.39 673.71 674.598 673.933Z"/>
	<path fill="#FEE5A7" transform="scale(0.246094 0.246094)" d="M580.853 706.429L580.748 625.699C580.752 610.208 580.446 594.609 580.968 579.131Q588.245 579.089 595.521 579.215L595.862 668.102L595.875 692.949C595.878 697.201 596.261 701.642 595.754 705.856L594.967 706.464L580.853 706.429Z"/>
	<path fill="#FEE5A7" transform="scale(0.246094 0.246094)" d="M599.35 579.13C599.751 582.946 599.636 586.823 599.635 590.658C608.579 600.924 616.693 611.532 627.436 620.053C627 648.859 627.383 677.724 627.407 706.535L599.065 706.494C598.418 681.078 598.988 655.488 599.017 630.058L599.08 597.684C599.097 591.529 598.874 585.261 599.35 579.13Z"/>
	<path fill="#B7D5DC" transform="scale(0.246094 0.246094)" d="M160.931 581.249C165.079 584.913 168.894 596.719 174.402 597.087L174.458 719.102L174.352 750.638C174.313 758.067 173.54 766.281 175.102 773.564C176.333 774.614 176.809 775.063 178.427 775.188C187.073 775.856 196.345 775.121 205.041 775.072L258.637 775.045Q299.217 775.292 339.797 775.094C353.581 775.061 367.743 775.704 381.476 774.742Q381.876 782.147 381.977 789.562L234.913 789.803C210.408 789.801 185.579 790.612 161.111 789.572C160.333 780.304 160.612 770.855 160.58 761.553L160.617 712.787L160.931 581.249Z"/>
	<path fill="#B7D5DC" transform="scale(0.246094 0.246094)" d="M264.818 650.602C260.756 650.645 245.376 651.992 242.825 649.127C241.839 648.02 241.557 646.366 241.499 644.937C241.171 636.889 246.524 619.808 252.283 613.847Q253.091 613.006 253.999 612.273Q254.907 611.54 255.9 610.927Q256.892 610.313 257.954 609.83Q259.016 609.346 260.13 609C268.824 606.246 285.41 606.954 294.879 606.731C326.864 606.029 359.566 606.24 391.525 607.977C405.94 608.76 420.257 610.643 434.659 611.403C443.356 611.862 452.066 611.612 460.766 612.013C465.368 622.204 470.463 639.007 471.928 650.062Q457.828 650.414 443.724 650.391Q443.648 649.395 443.492 648.408Q443.335 647.422 443.098 646.452Q442.861 645.481 442.546 644.533Q442.23 643.586 441.838 642.667Q441.446 641.748 440.981 640.864Q440.515 639.98 439.979 639.138Q439.442 638.295 438.839 637.499Q438.236 636.703 437.569 635.959C433.199 631.166 426.943 628.531 420.507 628.263C413.205 627.959 407.508 630.868 402.306 635.722C398.28 640.031 396.321 644.644 395.726 650.465Q354.258 651.079 312.788 650.61C312.241 644.826 310.561 639.284 306.525 634.95C302.189 630.292 295.849 627.615 289.521 627.396C283.107 627.175 276.585 629.281 271.864 633.711C266.983 638.292 264.941 644.056 264.818 650.602Z"/>
	<path fill="#B7D5DC" transform="scale(0.246094 0.246094)" d="M178.489 609.102C188.74 612.357 197.421 620.368 208.066 622.841L207.975 702.532L207.961 726.647C207.963 731.284 207.669 736.153 208.216 740.754C208.383 742.157 208.612 742.849 209.654 743.862C210.765 744.943 211.944 745.347 213.475 745.474C220.218 746.034 227.45 745.523 234.241 745.495L276.358 745.366L337.664 745.366C348.889 745.375 360.237 745.687 371.447 745.246C371.833 745.231 372.219 745.199 372.603 745.164C375.294 753.938 379.582 762.219 382.225 770.954Q280.338 770.461 178.452 771.022L178.489 609.102Z"/>
	<path fill="#FEE5A7" transform="scale(0.246094 0.246094)" d="M501.628 643.273C501.816 641.504 502.04 639.811 502.435 638.076C506.849 635.143 511.125 631.864 514.957 628.198C518.058 625.231 520.974 621.736 524.481 619.267L524.63 696.096C524.595 709.794 524.158 723.588 524.525 737.272C524.572 739.02 524.589 740.843 525.313 742.457C526.375 743.435 527.253 744.148 528.74 744.331C534.375 745.025 540.695 744.502 546.399 744.493L580.972 744.435L705.754 744.482L745.578 744.532C752.371 744.548 759.562 744.143 766.311 744.83C768.852 753.436 770.54 761.858 771.995 770.703C754.966 771.383 737.804 770.985 720.757 770.989L631.502 771.005L382.225 770.954C379.582 762.219 375.294 753.938 372.603 745.164C402.874 743.918 434.903 744.65 465.382 744.65C475.386 744.65 485.526 744.998 495.518 744.599C497.494 744.52 499.471 744.38 501.28 743.529C502.521 737.723 501.547 722.358 501.545 715.569L501.628 643.273Z"/>
	<path fill="#F8F6EE" transform="scale(0.246094 0.246094)" d="M631.15 623.589L645.12 623.597C644.703 626.812 644.896 630.267 644.867 633.517C641.354 631.914 637.385 630.719 634.174 628.576C631.84 627.018 631.625 626.26 631.15 623.589Z"/>
	<path fill="#FEE5A7" transform="scale(0.246094 0.246094)" d="M630.838 706.541C630.728 678.993 630.18 651.112 631.15 623.589C631.625 626.26 631.84 627.018 634.174 628.576C637.385 630.719 641.354 631.914 644.867 633.517C644.896 630.267 644.703 626.812 645.12 623.597C646.265 631.76 645.361 641.312 645.375 649.623L645.478 706.554L630.838 706.541Z"/>
	<path fill="#B7D5DC" transform="scale(0.246094 0.246094)" d="M290.517 669.512C285.758 669.687 281.604 669.133 277.624 666.311C273.23 663.194 270.675 658.263 269.965 652.989C269.312 648.135 270.356 643.231 273.455 639.373C277.258 634.639 282.497 632.75 288.346 632.186C291.615 632.006 294.853 632.75 297.795 634.168Q298.209 634.367 298.611 634.587Q299.014 634.807 299.405 635.048Q299.796 635.288 300.175 635.548Q300.553 635.808 300.917 636.087Q301.282 636.366 301.632 636.663Q301.982 636.961 302.316 637.275Q302.65 637.59 302.968 637.921Q303.285 638.253 303.586 638.6Q303.886 638.947 304.169 639.309Q304.451 639.671 304.714 640.047Q304.978 640.423 305.222 640.812Q305.465 641.2 305.689 641.601Q305.913 642.002 306.116 642.414Q306.319 642.826 306.501 643.247Q306.682 643.669 306.842 644.099Q307.002 644.529 307.14 644.967C308.59 649.461 308.259 654.155 306.033 658.335C302.743 664.513 297.011 667.68 290.517 669.512ZM285.973 645.503C284.355 646.703 282.615 647.9 282.337 650.076C282.162 651.454 282.398 652.573 283.369 653.614C285.161 655.536 287.626 655.579 290.055 655.432C291.754 654.383 293.315 653.343 293.615 651.18C293.817 649.729 293.561 648.596 292.617 647.474C291.379 646.001 289.92 645.457 288.015 645.403C287.34 645.384 286.643 645.454 285.973 645.503Z"/>
	<path fill="#B7D5DC" transform="scale(0.246094 0.246094)" d="M422.108 670.756C417.746 670.839 413.819 670.561 409.934 668.317C405.311 665.646 402.122 660.927 400.973 655.75Q400.871 655.308 400.792 654.861Q400.713 654.414 400.658 653.964Q400.602 653.513 400.569 653.061Q400.536 652.608 400.526 652.154Q400.517 651.701 400.531 651.247Q400.544 650.794 400.581 650.341Q400.618 649.889 400.678 649.439Q400.738 648.989 400.821 648.543Q400.904 648.097 401.01 647.656Q401.116 647.214 401.244 646.779Q401.372 646.344 401.522 645.916Q401.673 645.488 401.845 645.068Q402.017 644.648 402.21 644.237Q402.403 643.827 402.617 643.427Q402.831 643.026 403.066 642.638Q403.3 642.249 403.554 641.873C406.822 636.997 411.73 634.284 417.385 633.157C422.01 632.796 426.403 633.513 430.337 636.082Q430.75 636.354 431.148 636.646Q431.546 636.939 431.928 637.251Q432.311 637.564 432.677 637.896Q433.042 638.228 433.39 638.579Q433.738 638.93 434.068 639.298Q434.397 639.666 434.707 640.051Q435.017 640.435 435.307 640.836Q435.596 641.236 435.865 641.651Q436.133 642.065 436.38 642.494Q436.626 642.922 436.85 643.362Q437.074 643.802 437.275 644.254Q437.476 644.705 437.654 645.166Q437.831 645.627 437.984 646.097Q438.137 646.566 438.266 647.043Q438.395 647.52 438.499 648.003Q438.602 648.486 438.681 648.974C439.522 654.094 438.29 659.565 435.151 663.719C431.869 668.062 427.392 670.066 422.108 670.756ZM417.461 646.036C415.713 647.42 414.455 648.511 414.225 650.837C414.071 652.406 414.596 653.882 415.702 655.012C417.305 656.652 419.274 657.062 421.501 657.005C423.118 655.73 424.588 654.392 424.837 652.218C425.025 650.581 424.714 649.147 423.62 647.902C422.531 646.662 421.153 646.069 419.517 645.973C418.843 645.934 418.132 645.998 417.461 646.036Z"/>
	<path fill="#FEE5A7" transform="scale(0.246094 0.246094)" d="M648.822 635.982C661.275 642.995 675.121 648.349 686.271 657.442C696.196 665.537 704.512 676.63 715.112 683.75C715.435 691.318 715.14 699.014 715.132 706.596L692.52 706.578C692.552 698.801 693.716 677.994 691.717 671.561C691.068 670.955 690.522 670.722 689.66 670.586C686.65 670.112 673.888 669.931 671.849 671.455C669.766 677.525 670.922 698.943 670.944 706.557L648.92 706.545C648.821 683.041 648.438 659.482 648.822 635.982Z"/>
	<path fill="#FEE5A7" transform="scale(0.246094 0.246094)" d="M476.987 650.137C484.712 649.423 491.925 644.065 497.979 639.647C498.885 656.101 498.112 672.853 498.053 689.335C497.991 706.569 498.582 723.927 498.01 741.137L414.76 741.209C399.811 741.209 384.677 741.684 369.744 741.152C363.861 730.709 357.506 721.707 350.019 712.387L466.576 712.533L466.597 702.99L395.524 702.983C376.784 703.027 357.981 703.452 339.248 703.028C336.919 698.6 318.215 685.893 313.067 682.804C307.996 679.76 300.199 676.992 296.435 672.482Q297.837 671.831 299.217 671.134C306.369 667.492 309.652 662.692 312.131 655.191C322.343 654.776 332.64 654.998 342.863 654.984L395.866 654.93C396.491 657.726 397.278 660.454 398.643 662.988C401.724 668.709 406.814 672.912 413.092 674.659C419.237 676.368 426.078 675.822 431.655 672.632C438.62 668.647 442.08 662.262 444.118 654.804C452.696 654.287 463.802 656.008 471.824 654.084C474.461 653.451 475.574 652.391 476.987 650.137Z"/>
	<path fill="#3A3A35" transform="scale(0.246094 0.246094)" d="M290.055 655.432C287.626 655.579 285.161 655.536 283.369 653.614C282.398 652.573 282.162 651.454 282.337 650.076C282.615 647.9 284.355 646.703 285.973 645.503C286.643 645.454 287.34 645.384 288.015 645.403C289.92 645.457 291.379 646.001 292.617 647.474C293.561 648.596 293.817 649.729 293.615 651.18C293.315 653.343 291.754 654.383 290.055 655.432Z"/>
	<path fill="#F8F6EE" transform="scale(0.246094 0.246094)" d="M718.759 645.582C721.756 645.507 730.483 644.522 732.606 646.324C731.571 665.417 733.246 684.66 732.561 703.781C727.846 698.987 723.925 693.392 719.084 688.76C719.049 687.462 719.258 685.755 718.648 684.61C718.47 671.623 718.395 658.566 718.759 645.582Z"/>
	<path fill="#3D3E3C" transform="scale(0.246094 0.246094)" d="M421.501 657.005C419.274 657.062 417.305 656.652 415.702 655.012C414.596 653.882 414.071 652.406 414.225 650.837C414.455 648.511 415.713 647.42 417.461 646.036C418.132 645.998 418.843 645.934 419.517 645.973C421.153 646.069 422.531 646.662 423.62 647.902C424.714 649.147 425.025 650.581 424.837 652.218C424.588 654.392 423.118 655.73 421.501 657.005Z"/>
	<path fill="#FEE5A7" transform="scale(0.246094 0.246094)" d="M732.606 646.324C733.348 653.469 732.964 660.937 732.971 668.129L733.004 706.616L718.651 706.636C718.627 699.356 718.22 691.865 718.648 684.61C719.258 685.755 719.049 687.462 719.084 688.76C723.925 693.392 727.846 698.987 732.561 703.781C733.246 684.66 731.571 665.417 732.606 646.324Z"/>
	<path fill="#F8F6EE" transform="scale(0.246094 0.246094)" d="M763.569 706.604C763.382 698.509 763.484 690.384 763.46 682.286C763.446 677.79 763.029 672.793 763.591 668.35C763.76 667.016 764.001 666.705 764.838 665.715C768.927 665.664 773.007 665.805 777.093 665.934Q777.518 679.298 777.536 692.668C777.554 697.06 777.94 701.865 777.278 706.193L776.551 706.657L763.569 706.604Z"/>
	<path fill="#FEE5A7" transform="scale(0.246094 0.246094)" d="M674.602 706.557L674.598 673.933C679.39 673.71 684.247 673.88 689.047 673.889L689.041 706.569L674.602 706.557Z"/>
	<path fill="#3D3E3C" transform="scale(0.246094 0.246094)" d="M350.019 712.387L280.625 712.264C269.73 712.283 258.627 712.899 247.773 712.628C246.694 712.601 245.718 712.495 244.738 712.017C243.323 711.328 242.147 710.03 241.805 708.467C241.53 707.216 241.832 705.901 242.686 704.935C243.783 703.695 245.225 703.423 246.785 703.279C256.804 702.353 267.484 703.105 277.586 703.072Q308.417 702.851 339.248 703.028C357.981 703.452 376.784 703.027 395.524 702.983L466.597 702.99L466.576 712.533L350.019 712.387Z"/>
	<path fill="#FEE5A7" transform="scale(0.246094 0.246094)" d="M381.476 774.742C396.091 773.756 411.292 774.585 425.952 774.615L509.158 774.648L779.772 774.161C776.638 774.716 773.446 774.594 770.275 774.591C769.282 779.548 768.014 784.932 768 789.997C754.013 788.916 739.451 789.633 725.392 789.598L644.426 789.465L381.977 789.562Q381.876 782.147 381.476 774.742Z"/>
	<path fill="#FEE5A7" transform="scale(0.246094 0.246094)" d="M389.26 793.626L627.598 793.305L712.822 793.227C730.572 793.19 748.442 792.794 766.178 793.463C766.072 793.593 765.964 793.721 765.862 793.853C761.935 798.892 759.422 805.849 756.36 811.516C751.993 819.596 746.392 827.418 740.645 834.581C699.636 885.697 632.925 912.371 569.496 921.078C554.328 923.16 539.131 924.741 523.812 924.968C467.887 925.798 400.279 912.989 350.745 886.64C353.67 881.279 356.784 875.926 359.405 870.412C367.31 853.778 372.433 835.237 376.624 817.362C378.433 809.649 380.412 801.853 381.087 793.942C383.835 793.938 386.52 793.884 389.26 793.626Z"/>
</svg>
