<svg xmlns="http://www.w3.org/2000/svg" width="333.152" height="379.789" viewBox="0 0 333.152 379.789">
  <g id="Group_1589" data-name="Group 1589" transform="translate(-948.289 -178.236)">
    <line id="Line_39" data-name="Line 39" y1="48" x2="65" transform="translate(1020.5 232.328)" fill="none" stroke="#f4ba5d" stroke-width="4"/>
    <line id="Line_40" data-name="Line 40" y1="53.777" x2="62.263" transform="translate(1135.943 449.221)" fill="none" stroke="#d85d63" stroke-width="4"/>
    <line id="Line_41" data-name="Line 41" y1="51.039" x2="63.73" transform="translate(1032.033 365.5)" fill="none" stroke="#94a5e4" stroke-width="4"/>
    <line id="Line_42" data-name="Line 42" y1="86" x2="26" transform="translate(1220.5 312.5)" fill="none" stroke="#f4ba5d" stroke-width="4"/>
    <g id="Group_1536" data-name="Group 1536" transform="translate(955.097 258.965)">
      <circle id="Ellipse_44" data-name="Ellipse 44" cx="38.468" cy="38.468" r="38.468" transform="translate(0 4.362)" fill="#fce8e3"/>
      <g id="Group_1535" data-name="Group 1535" transform="translate(5.591)">
        <rect id="Rectangle_142" data-name="Rectangle 142" width="20.353" height="22.989" transform="translate(22.701 37.763)" fill="#e2988f"/>
        <g id="Group_1534" data-name="Group 1534" transform="translate(12.62)">
          <path id="Path_844" data-name="Path 844" d="M-37.163,688.743a2.318,2.318,0,0,0-3.417-1.367c1.325-12.2-4.881-20.259-16.516-20.259s-17.841,8.055-16.516,20.259a2.318,2.318,0,0,0-3.417,1.367c-1.123,2.684.928,8.981,2.2,10.982a14.1,14.1,0,0,0,3.515,3.515,16.126,16.126,0,0,0,.732,3.807c.586,1.562,7.224,8.743,9.176,9.841a8.8,8.8,0,0,0,8.628,0c1.952-1.1,8.59-8.279,9.176-9.841a16.144,16.144,0,0,0,.733-3.807,14.1,14.1,0,0,0,3.514-3.515C-38.091,697.724-36.04,691.427-37.163,688.743Z" transform="translate(77.353 -667.117)" fill="#e2988f"/>
          <g id="Group_1532" data-name="Group 1532" transform="translate(1.402 22.588)">
            <path id="Path_845" data-name="Path 845" d="M-52.533,738.123a9.1,9.1,0,0,1-4.546-1.159c-1.182-.664-3.9-3.384-5.923-5.629l.383-.346a38.616,38.616,0,0,0,5.8,5.528,8.552,8.552,0,0,0,8.359.009,38.425,38.425,0,0,0,5.813-5.537l.384.346c-2.023,2.245-4.741,4.965-5.928,5.632A8.02,8.02,0,0,1-52.533,738.123Z" transform="translate(71.49 -709.56)" fill="#c46966"/>
            <rect id="Rectangle_143" data-name="Rectangle 143" width="0.517" height="5.274" transform="translate(3.731 8.33) rotate(-7.029)" fill="#c46966"/>
            <rect id="Rectangle_144" data-name="Rectangle 144" width="5.267" height="0.517" transform="translate(32.842 13.505) rotate(-83.652)" fill="#c46966"/>
            <g id="Group_1531" data-name="Group 1531">
              <path id="Path_846" data-name="Path 846" d="M-74.9,704.967c-.109-.4-1.023-3.893.239-4.85a1.1,1.1,0,0,1,.974-.174,1.935,1.935,0,0,1,1,1.093l-.483.185c-.07-.181-.328-.675-.676-.787a.586.586,0,0,0-.516.105c-.727.552-.411,2.926-.039,4.291Z" transform="translate(75.318 -699.894)" fill="#c46966"/>
              <path id="Path_847" data-name="Path 847" d="M-22.208,704.966l-.5-.136c.373-1.365.689-3.739-.053-4.3a.574.574,0,0,0-.5-.094c-.414.134-.672.779-.674.786l-.483-.185a1.934,1.934,0,0,1,1-1.093,1.089,1.089,0,0,1,.959.163C-21.185,701.073-22.1,704.571-22.208,704.966Z" transform="translate(59.496 -699.894)" fill="#c46966"/>
            </g>
          </g>
          <g id="Group_1533" data-name="Group 1533" transform="translate(3.565)">
            <path id="Path_848" data-name="Path 848" d="M-70.354,693.794c3.453.018.841-11.125,3.551-13.822,1.377-1.371,3.387-1.147,5.11-.708a28.55,28.55,0,0,0,6.2,1.258c2.243.059,4.369-.762,6.519-1.283,1.668-.4,3.483-.582,4.8.733,2.709,2.7.1,13.84,3.551,13.822-.239-2.576-.246-5.4,1.649-6.418v0c1.324-12.2-4.881-20.256-16.516-20.256S-73.328,675.173-72,687.376h0C-70.465,688.377-70.112,691.1-70.354,693.794Z" transform="translate(72.18 -667.117)" fill="#4c224b"/>
          </g>
        </g>
        <path id="Path_849" data-name="Path 849" d="M-29.911,755.3a98.147,98.147,0,0,0-22.7-6.564c-5.433,5.664-15.551,5.744-20.353,0a98.147,98.147,0,0,0-22.7,6.564,38.446,38.446,0,0,0,32.877,18.487A38.445,38.445,0,0,0-29.911,755.3Z" transform="translate(95.665 -692.488)" fill="#f4ba5d"/>
        <path id="Path_850" data-name="Path 850" d="M-66.715,747.079l2.75-4.932,8.9,7.992-5.448,5.97Z" transform="translate(86.666 -690.44)" fill="#fff"/>
        <path id="Path_851" data-name="Path 851" d="M-34.474,747.079l-2.75-4.932-8.9,7.992,5.448,5.97Z" transform="translate(80.266 -690.44)" fill="#fff"/>
      </g>
    </g>
    <g id="Group_1546" data-name="Group 1546" transform="translate(1204.505 240.971)">
      <circle id="Ellipse_46" data-name="Ellipse 46" cx="38.468" cy="38.468" r="38.468" transform="translate(0 1.777)" fill="#fce8e3"/>
      <g id="Group_1545" data-name="Group 1545" transform="translate(4.931 0)">
        <path id="Path_862" data-name="Path 862" d="M116.937,708.028c2.719-15.836-3.8-35.972-21.735-37.12-5.722-.366-11.312,1.737-14.2,5.793-9.9,3.9-10.729,21.28-9.623,27.262,3.032,16.4-11.587,13.578-7.874,28.973l30.554-1.682h1.171l30.008.385C127.769,720.023,115.705,720.806,116.937,708.028Z" transform="translate(-61 -670.867)" fill="#4c224b"/>
        <rect id="Rectangle_148" data-name="Rectangle 148" width="18.02" height="22.989" transform="translate(24.513 35.179)" fill="#e2988f"/>
        <g id="Group_1541" data-name="Group 1541" transform="translate(0 53.663)">
          <path id="Path_863" data-name="Path 863" d="M126.742,754.983c-8.481-3.564-23.958-6.248-23.958-6.248-5.943,5-13.454,4.967-18.128,0,0,0-15.669,2.32-24.513,5.419A38.451,38.451,0,0,0,91.9,773.741c.612.019,1.221.043,1.838.043A38.443,38.443,0,0,0,126.742,754.983Z" transform="translate(-60.143 -748.735)" fill="#d85d63"/>
        </g>
        <g id="Group_1544" data-name="Group 1544" transform="translate(14.308 4.137)">
          <path id="Path_864" data-name="Path 864" d="M131.383,717.885c-.672,0-1.216.969-1.216,2.165s.544,2.165,1.216,2.165,1.216-.969,1.216-2.165S132.055,717.885,131.383,717.885Zm0,3.381c-.462,0-.837-.667-.837-1.49s.375-1.489.837-1.489.837.667.837,1.489S131.846,721.266,131.383,721.266Z" transform="translate(-96.218 -689.619)" fill="#fff"/>
          <path id="Path_865" data-name="Path 865" d="M83.791,720.05c0,1.2.544,2.165,1.216,2.165s1.216-.969,1.216-2.165-.544-2.165-1.216-2.165S83.791,718.854,83.791,720.05Zm.379-.273c0-.822.375-1.489.837-1.489s.837.667.837,1.489-.375,1.49-.837,1.49S84.17,720.6,84.17,719.776Z" transform="translate(-81.802 -689.619)" fill="#fff"/>
          <g id="Group_1542" data-name="Group 1542" transform="translate(5.163 3.205)">
            <path id="Path_866" data-name="Path 866" d="M102.427,681.52h0c-11.616.013-14.259,8.713-14.015,17.472,0,6.315-.038,10.969.547,12.531s4.657,10.953,13.468,10.97h0c8.811-.017,12.882-9.41,13.468-10.97s.548-6.216.548-12.531C116.685,690.233,114.043,681.533,102.427,681.52Z" transform="translate(-88.396 -681.52)" fill="#e2988f"/>
          </g>
          <g id="Group_1543" data-name="Group 1543" transform="translate(9.934 39.904)">
            <path id="Path_867" data-name="Path 867" d="M104.58,739.3a12.689,12.689,0,0,1-9.261-4.171l.37-.361a11.834,11.834,0,0,0,17.654.127l.367.365A12.644,12.644,0,0,1,104.58,739.3Z" transform="translate(-95.319 -734.772)" fill="#c46966"/>
          </g>
          <path id="Path_868" data-name="Path 868" d="M86.593,705.509s-2.335-3.437-4.734-1.427-.065,13.426,4.734,11.416S86.593,705.509,86.593,705.509Z" transform="translate(-80.905 -685.132)" fill="#e2988f"/>
          <path id="Path_869" data-name="Path 869" d="M127.454,705.509s2.335-3.437,4.734-1.427.065,13.426-4.734,11.416S127.454,705.509,127.454,705.509Z" transform="translate(-94.711 -685.132)" fill="#e2988f"/>
          <rect id="Rectangle_149" data-name="Rectangle 149" width="0.517" height="3.701" transform="matrix(0.997, -0.074, 0.074, 0.997, 4.784, 26.827)" fill="#c46966"/>
          <rect id="Rectangle_150" data-name="Rectangle 150" width="4.092" height="0.517" transform="translate(32.831 30.47) rotate(-85.741)" fill="#c46966"/>
          <path id="Path_870" data-name="Path 870" d="M83.832,711.017c-.551-1.832-.555-3.105-.014-3.786a1.221,1.221,0,0,1,.977-.475l-.034.516.017-.258-.013.258a.7.7,0,0,0-.549.29c-.237.306-.538,1.143.113,3.305Z" transform="translate(-81.685 -686.159)" fill="#c46966"/>
          <path id="Path_871" data-name="Path 871" d="M133.4,711.017l-.5-.149c.65-2.162.349-3,.112-3.305a.7.7,0,0,0-.549-.29l-.03-.516a1.223,1.223,0,0,1,.977.475C133.957,707.912,133.952,709.185,133.4,711.017Z" transform="translate(-96.924 -686.159)" fill="#c46966"/>
          <path id="Path_872" data-name="Path 872" d="M86.028,720.614a1.274,1.274,0,0,1-.251-.03.367.367,0,0,1-.059-.034c-.147.427-.409.715-.712.715-.462,0-.837-.667-.837-1.49s.371-1.482.83-1.489a.2.2,0,0,0,0-.4c-.668.007-1.209.972-1.209,2.164s.544,2.165,1.216,2.165c.562,0,1.03-.681,1.17-1.6Z" transform="translate(-81.802 -689.619)" fill="#fff"/>
          <path id="Path_873" data-name="Path 873" d="M131.45,717.886a.2.2,0,0,0,0,.4c.46.007.83.67.83,1.489s-.374,1.49-.837,1.49c-.258,0-.482-.216-.636-.543-.044.034-.085.07-.132.1-.1.065-.209.123-.314.183.2.713.605,1.208,1.083,1.208.671,0,1.216-.969,1.216-2.165S132.119,717.893,131.45,717.886Z" transform="translate(-96.278 -689.619)" fill="#fff"/>
          <path id="Path_874" data-name="Path 874" d="M88.2,696.542a11.639,11.639,0,0,1,4.485-9.35c4.135,7.248,15.534,9.713,25.943,6.113,0,0-1.01-17.416-17.276-16.393S88.2,696.542,88.2,696.542Z" transform="translate(-83.099 -676.869)" fill="#4c224b"/>
        </g>
      </g>
    </g>
    <g id="Group_1559" data-name="Group 1559" transform="translate(1079.801 178.236)">
      <circle id="Ellipse_49" data-name="Ellipse 49" cx="38.468" cy="38.468" r="38.468" transform="translate(0 3.792)" fill="#fce8e3"/>
      <g id="Group_1558" data-name="Group 1558" transform="translate(3.746)">
        <ellipse id="Ellipse_50" data-name="Ellipse 50" cx="11.48" cy="1.63" rx="11.48" ry="1.63" transform="translate(23.122 49.497)" fill="#94a5e4"/>
        <rect id="Rectangle_154" data-name="Rectangle 154" width="20.353" height="22.989" transform="translate(24.546 37.194)" fill="#e2988f"/>
        <g id="Group_1556" data-name="Group 1556" transform="translate(13.839)">
          <path id="Path_894" data-name="Path 894" d="M276.661,690.237a2.389,2.389,0,0,0-3.522-1.409c1.365-12.581-5.032-20.885-17.027-20.885s-18.392,8.3-17.026,20.885a2.389,2.389,0,0,0-3.522,1.409c-1.157,2.768.957,9.258,2.265,11.321a14.53,14.53,0,0,0,3.623,3.623,16.64,16.64,0,0,0,.755,3.925c.6,1.61,7.446,9.013,9.459,10.146a9.071,9.071,0,0,0,8.895,0c2.012-1.132,8.856-8.536,9.459-10.146a16.64,16.64,0,0,0,.755-3.925,14.541,14.541,0,0,0,3.623-3.623C275.705,699.5,277.819,693,276.661,690.237Z" transform="translate(-235.23 -667.943)" fill="#e2988f"/>
          <g id="Group_1555" data-name="Group 1555" transform="translate(1.454 23.295)">
            <g id="Group_1554" data-name="Group 1554">
              <path id="Path_895" data-name="Path 895" d="M237.773,706.964c-.112-.407-1.052-4.008.244-4.992a1.126,1.126,0,0,1,1-.178,2.028,2.028,0,0,1,1.024,1.122l-.483.185c-.072-.187-.34-.7-.7-.816a.612.612,0,0,0-.539.109c-.753.572-.428,3.024-.043,4.433Z" transform="translate(-237.339 -701.746)" fill="#c46966"/>
              <path id="Path_896" data-name="Path 896" d="M292.074,706.964l-.5-.136c.276-1.014.807-3.788-.058-4.443a.6.6,0,0,0-.524-.1c-.361.116-.629.629-.7.816l-.483-.185a2.03,2.03,0,0,1,1.025-1.122,1.113,1.113,0,0,1,.981.167C293.127,702.956,292.186,706.557,292.074,706.964Z" transform="translate(-253.649 -701.745)" fill="#c46966"/>
            </g>
          </g>
          <path id="Path_897" data-name="Path 897" d="M257.77,667.943c-11.995,0-18.392,8.3-17.026,20.885h0c1.587,1.032,1.95,3.838,1.7,6.617h0s-.528,8.843,1.21,13.015,4.765,10.689,14.112,10.609h0c9.348.079,12.375-6.437,14.113-10.609s1.21-13.015,1.21-13.015h0c-.247-2.655-.254-5.566,1.7-6.617l0,0C276.162,676.246,269.764,667.943,257.77,667.943Zm13.126,19.33s-.232,11.544-2.015,14.074-1.229-3.081-11.11-3.178-9.33,5.708-11.113,3.178-2.014-14.022-2.015-14.072c.116-2.553.366-4.987,1.462-6.079,1.42-1.413,3.492-1.183,5.268-.73a29.415,29.415,0,0,0,6.39,1.3c2.312.061,4.5-.786,6.72-1.323,1.72-.416,3.591-.6,4.953.755,1.1,1.092,1.347,3.53,1.463,6.085Z" transform="translate(-236.887 -667.943)" fill="#4c224b"/>
        </g>
        <g id="Group_1557" data-name="Group 1557" transform="translate(0 55.678)">
          <path id="Path_898" data-name="Path 898" d="M284.681,751.7c-9.643-2.339-23.45-2.961-23.45-2.961-7.129,5.664-16.66,5.744-22.961,0,0,0-13.558.883-23.122,3.155a38.47,38.47,0,0,0,34.722,21.9h0A38.469,38.469,0,0,0,284.681,751.7Z" transform="translate(-215.148 -748.735)" fill="#94a5e4"/>
        </g>
        <path id="Path_899" data-name="Path 899" d="M248.7,742.131v5.757c8.149,6.011,15.809,6.095,22.96,0v-5.757C267.607,744.758,251.295,744.4,248.7,742.131Z" transform="translate(-225.578 -691.004)" fill="#94a5e4"/>
        <path id="Path_900" data-name="Path 900" d="M259.8,752.266c-1.114,0-2.225-.047-3.3-.142-2.13-.187-7.189-.868-8.148-3.133l.477-.2c.589,1.392,3.474,2.446,7.717,2.819,5.883.516,13.209-.428,14.789-2.859l.433.281C270.361,751.2,265.072,752.266,259.8,752.266Z" transform="translate(-225.47 -693.062)" fill="#6c82bc"/>
        <path id="Path_901" data-name="Path 901" d="M260.074,745.937a56.793,56.793,0,0,1-5.78-.272c-2.921-.311-4.666-.823-5.189-1.523l.415-.309c.2.263,1.059.918,4.828,1.319,5.983.636,15.086.124,16.782-1.359l.34.39C270.052,745.42,264.916,745.937,260.074,745.937Z" transform="translate(-225.703 -691.52)" fill="#6c82bc"/>
      </g>
    </g>
    <g id="Group_1567" data-name="Group 1567" transform="translate(1161.508 374.472)">
      <circle id="Ellipse_51" data-name="Ellipse 51" cx="38.468" cy="38.468" r="38.468" transform="translate(0 54.402) rotate(-45)" fill="#fce8e3"/>
      <g id="Group_1566" data-name="Group 1566" transform="translate(21.62 15.464)">
        <g id="Group_1561" data-name="Group 1561" transform="translate(0 33.872)">
          <rect id="Rectangle_155" data-name="Rectangle 155" width="20.353" height="22.989" transform="translate(22.701)" fill="#e2988f"/>
          <g id="Group_1560" data-name="Group 1560" transform="translate(0 18.484)">
            <path id="Path_902" data-name="Path 902" d="M283.718,912.287a98.148,98.148,0,0,0-22.7-6.564c-5.433,5.664-15.551,5.744-20.352,0a98.148,98.148,0,0,0-22.7,6.564,38.479,38.479,0,0,0,65.755,0Z" transform="translate(-217.963 -905.723)" fill="#fff"/>
            <path id="Path_903" data-name="Path 903" d="M283.647,906.275v22.631a38.586,38.586,0,0,0,20.488-16.447A96.83,96.83,0,0,0,283.647,906.275Z" transform="translate(-238.381 -905.895)" fill="#f4ba5d"/>
            <path id="Path_904" data-name="Path 904" d="M238.412,906.286a96.741,96.741,0,0,0-20.448,6.176A38.584,38.584,0,0,0,238.412,928.9Z" transform="translate(-217.963 -905.898)" fill="#f4ba5d"/>
            <path id="Path_905" data-name="Path 905" d="M259.677,912.718h-.192c-5.258-.056-9.694-2.373-12.168-6.358l.439-.273c2.38,3.832,6.657,6.06,11.735,6.114,5.289.045,10.154-2.289,12.647-6.119l.433.282C270.012,910.294,265.084,912.718,259.677,912.718Z" transform="translate(-227.087 -905.834)" fill="#eabfb9"/>
          </g>
        </g>
        <g id="Group_1565" data-name="Group 1565" transform="translate(12.621)">
          <path id="Path_906" data-name="Path 906" d="M276.466,851.378a2.318,2.318,0,0,0-3.417-1.367c1.325-12.2-4.881-20.259-16.516-20.259s-17.841,8.056-16.516,20.259a2.318,2.318,0,0,0-3.416,1.367c-1.123,2.684.928,8.98,2.2,10.982a2.564,2.564,0,0,0,3.191,1.155,40.025,40.025,0,0,0,1.055,6.167c.585,1.562,7.223,8.743,9.175,9.841a8.8,8.8,0,0,0,8.628,0c1.952-1.1,8.59-8.279,9.176-9.841a40.289,40.289,0,0,0,1.045-6.248,2.5,2.5,0,0,0,3.2-1.074C275.538,860.358,277.588,854.062,276.466,851.378Z" transform="translate(-236.276 -829.752)" fill="#e2988f"/>
          <g id="Group_1563" data-name="Group 1563" transform="translate(1.402 22.588)">
            <path id="Path_907" data-name="Path 907" d="M261.1,900.758a9.114,9.114,0,0,1-4.548-1.158c-1.182-.666-3.9-3.386-5.923-5.63l.383-.346a38.661,38.661,0,0,0,5.8,5.528,8.557,8.557,0,0,0,8.361.009,38.489,38.489,0,0,0,5.812-5.536l.384.346c-2.025,2.245-4.743,4.965-5.928,5.632A8.022,8.022,0,0,1,261.1,900.758Z" transform="translate(-242.139 -872.195)" fill="#c46966"/>
            <rect id="Rectangle_156" data-name="Rectangle 156" width="0.517" height="2.893" transform="translate(3.731 8.327) rotate(-6.397)" fill="#c46966"/>
            <rect id="Rectangle_157" data-name="Rectangle 157" width="2.809" height="0.517" transform="translate(33.132 11.066) rotate(-84.017)" fill="#c46966"/>
            <g id="Group_1562" data-name="Group 1562">
              <path id="Path_908" data-name="Path 908" d="M238.733,867.6c-.109-.4-1.023-3.893.239-4.849a1.1,1.1,0,0,1,.973-.174,1.931,1.931,0,0,1,1,1.093l-.483.185c-.07-.181-.328-.675-.675-.787a.585.585,0,0,0-.515.106c-.728.551-.412,2.926-.039,4.291Z" transform="translate(-238.311 -862.529)" fill="#c46966"/>
              <path id="Path_909" data-name="Path 909" d="M291.421,867.6l-.5-.136c.373-1.365.688-3.739-.054-4.3a.579.579,0,0,0-.5-.094c-.414.135-.672.78-.674.786l-.483-.185a1.926,1.926,0,0,1,1-1.093,1.087,1.087,0,0,1,.959.163C292.444,863.708,291.529,867.206,291.421,867.6Z" transform="translate(-254.133 -862.529)" fill="#c46966"/>
            </g>
          </g>
          <g id="Group_1564" data-name="Group 1564" transform="translate(3.564)">
            <path id="Path_910" data-name="Path 910" d="M243.274,856.429c3.453.018.842-11.125,3.551-13.822,1.376-1.371,21.31-1.315,22.63,0,2.709,2.7.1,13.84,3.551,13.822-.239-2.576-.247-5.4,1.649-6.418v0c1.324-12.2-4.882-20.256-16.516-20.256s-17.841,8.056-16.516,20.259h0C243.164,851.012,243.516,853.734,243.274,856.429Z" transform="translate(-241.448 -829.752)" fill="#4c224b"/>
          </g>
          <path id="Path_911" data-name="Path 911" d="M261.827,873.826s-8.179-.181-8.519,5.286h17.039C270.006,873.645,261.827,873.826,261.827,873.826Z" transform="translate(-241.57 -843.452)" fill="#4c224b"/>
        </g>
      </g>
    </g>
    <g id="Group_1574" data-name="Group 1574" transform="translate(1071.992 293.985)">
      <circle id="Ellipse_52" data-name="Ellipse 52" cx="38.468" cy="38.468" r="38.468" transform="matrix(0.23, -0.973, 0.973, 0.23, 0, 74.879)" fill="#fce8e3"/>
      <g id="Group_1573" data-name="Group 1573" transform="translate(12.778 6.482)">
        <path id="Path_912" data-name="Path 912" d="M104.03,1036.755a77.487,77.487,0,0,0,7.776-.684c4.787-.677,9.062-1.876,11.3-6.538,2.282-5.011-.327-12.541-2.894-17.213a62.711,62.711,0,0,1-4.323-8.9c-1.562-4.344-2.724-9.014-6.027-12.437-.127-.131-.257-.26-.389-.387A18.332,18.332,0,0,0,80.363,995.7c-2.034,4.236-2.726,8.967-4.675,13.244-2.043,4.484-4.475,8.847-5.309,13.766a10.082,10.082,0,0,0,2.547,8.714c2.685,2.839,6.253,4.027,9.962,4.544A120.189,120.189,0,0,0,104.03,1036.755Z" transform="translate(-63.3 -985.496)" fill="#f4ba5d"/>
        <g id="Group_1569" data-name="Group 1569" transform="translate(0 34.828)">
          <rect id="Rectangle_158" data-name="Rectangle 158" width="18.02" height="22.989" transform="translate(24.513)" fill="#e2988f"/>
          <g id="Group_1568" data-name="Group 1568" transform="translate(0 18.484)">
            <path id="Path_913" data-name="Path 913" d="M126.777,1069.1c-8.482-3.564-23.958-6.247-23.958-6.247-5.943,5-13.454,4.967-18.128,0,0,0-15.669,2.319-24.513,5.418a38.451,38.451,0,0,0,31.755,19.587c.612.019,1.221.043,1.838.044A38.444,38.444,0,0,0,126.777,1069.1Z" transform="translate(-60.177 -1062.855)" fill="#fff"/>
          </g>
          <path id="Path_914" data-name="Path 914" d="M81.03,1063.712c-5.171.879-14.674,2.663-20.853,4.828A38.491,38.491,0,0,0,87.735,1087.7,62.979,62.979,0,0,1,81.03,1063.712Z" transform="translate(-60.177 -1044.637)" fill="#94a5e4"/>
          <path id="Path_915" data-name="Path 915" d="M124.114,1063.712c5.171.879,14.674,2.663,20.853,4.828a38.491,38.491,0,0,1-27.558,19.161A62.979,62.979,0,0,0,124.114,1063.712Z" transform="translate(-77.967 -1044.637)" fill="#94a5e4"/>
        </g>
        <g id="Group_1572" data-name="Group 1572" transform="translate(13.948 3.956)">
          <g id="Group_1570" data-name="Group 1570" transform="translate(5.376 3.034)">
            <path id="Path_916" data-name="Path 916" d="M102.394,995.639h0c-11.616.014-14.259,8.714-14.015,17.473,0,6.315-.445,8.362.141,9.924.327,2.224,4.843,13.576,13.875,13.576s13.164-10.753,13.96-13.576c.586-1.562.056-3.609.056-9.924C116.653,1004.353,114.01,995.653,102.394,995.639Z" transform="translate(-88.217 -995.639)" fill="#e2988f"/>
          </g>
          <g id="Group_1571" data-name="Group 1571" transform="translate(10.372 39.373)">
            <path id="Path_917" data-name="Path 917" d="M104.648,1053.262a13.216,13.216,0,0,1-9.181-4.548l.385-.345a12.681,12.681,0,0,0,8.8,4.376,12.765,12.765,0,0,0,8.838-4.364l.388.343A13.315,13.315,0,0,1,104.648,1053.262Z" transform="translate(-95.467 -1048.369)" fill="#c46966"/>
          </g>
          <path id="Path_918" data-name="Path 918" d="M86.21,1021.454s-2.378-2.8-4.823-1.162-.066,10.933,4.823,9.3S86.21,1021.454,86.21,1021.454Z" transform="translate(-80.416 -1000.109)" fill="#e2988f"/>
          <path id="Path_919" data-name="Path 919" d="M127.838,1021.454s2.379-2.8,4.823-1.162.066,10.933-4.823,9.3S127.838,1021.454,127.838,1021.454Z" transform="translate(-94.481 -1000.109)" fill="#e2988f"/>
          <rect id="Rectangle_159" data-name="Rectangle 159" width="0.516" height="4.341" transform="matrix(0.99, -0.138, 0.138, 0.99, 4.632, 25.407)" fill="#c46966"/>
          <rect id="Rectangle_160" data-name="Rectangle 160" width="4.318" height="0.516" transform="matrix(0.093, -0.996, 0.996, 0.093, 33.532, 29.648)" fill="#c46966"/>
          <path id="Path_920" data-name="Path 920" d="M83.411,1025.948c-.526-1.4-.569-2.414-.127-3.018a1.357,1.357,0,0,1,1.093-.53l-.026.516a.819.819,0,0,0-.655.324c-.225.314-.374,1.006.2,2.526Z" transform="translate(-81.214 -1000.924)" fill="#c46966"/>
          <path id="Path_921" data-name="Path 921" d="M133.887,1025.948l-.483-.182c.571-1.52.422-2.212.2-2.525a.816.816,0,0,0-.655-.325l-.025-.516a1.357,1.357,0,0,1,1.094.53C134.457,1023.534,134.415,1024.549,133.887,1025.948Z" transform="translate(-96.737 -1000.924)" fill="#c46966"/>
          <path id="Path_922" data-name="Path 922" d="M86.2,1011.209c2.163-3.867,12.428-3.356,15.591-12.183,3.063,10.075,12.11,7.126,16.105,12.514,0,0-1.906-20.3-16.105-20.3S86.2,1011.209,86.2,1011.209Z" transform="translate(-82.213 -991.237)" fill="#f4ba5d"/>
        </g>
      </g>
    </g>
    <g id="Group_1581" data-name="Group 1581" transform="translate(948.289 374.472)">
      <circle id="Ellipse_53" data-name="Ellipse 53" cx="38.468" cy="38.468" r="38.468" transform="translate(0 54.402) rotate(-45)" fill="#fce8e3"/>
      <g id="Group_1580" data-name="Group 1580" transform="translate(21.525 19.698)">
        <g id="Group_1576" data-name="Group 1576" transform="translate(0 29.678)">
          <rect id="Rectangle_161" data-name="Rectangle 161" width="20.353" height="22.989" transform="translate(22.701)" fill="#e2988f"/>
          <g id="Group_1575" data-name="Group 1575" transform="translate(0 18.484)">
            <path id="Path_923" data-name="Path 923" d="M-29.911,1069.333a98.172,98.172,0,0,0-22.7-6.563c-5.433,5.664-15.551,5.743-20.353,0a98.172,98.172,0,0,0-22.7,6.563,38.444,38.444,0,0,0,32.877,18.487A38.444,38.444,0,0,0-29.911,1069.333Z" transform="translate(95.665 -1062.77)" fill="#d85d63"/>
            <path id="Path_924" data-name="Path 924" d="M-53.952,1069.765h-.193c-5.258-.056-9.692-2.374-12.167-6.358l.439-.272c2.38,3.832,6.657,6.06,11.734,6.114h.187c5.234,0,10-2.334,12.46-6.12l.433.282C-43.616,1067.34-48.544,1069.765-53.952,1069.765Z" transform="translate(86.541 -1062.881)" fill="#b73d49"/>
          </g>
        </g>
        <g id="Group_1579" data-name="Group 1579" transform="translate(13.352)">
          <path id="Path_925" data-name="Path 925" d="M-37.553,1011.374a2.235,2.235,0,0,0-3.293-1.318c.46-10.14-4.7-17.172-15.919-17.172s-16.317,8.44-15.919,17.172a2.234,2.234,0,0,0-3.293,1.318c-1.083,2.587.894,8.656,2.116,10.585a2.471,2.471,0,0,0,3.076,1.113,38.585,38.585,0,0,0,1.017,5.944c.565,1.505,6.963,8.427,8.845,9.485a8.479,8.479,0,0,0,8.316,0c1.882-1.058,8.28-7.98,8.845-9.485a38.843,38.843,0,0,0,1.007-6.022,2.407,2.407,0,0,0,3.086-1.035C-38.447,1020.03-36.471,1013.961-37.553,1011.374Z" transform="translate(76.29 -992.884)" fill="#e2988f"/>
          <g id="Group_1578" data-name="Group 1578" transform="translate(1.343 19.409)">
            <path id="Path_926" data-name="Path 926" d="M-52.375,1056.915c-4.568,0-7.95-3.166-10.1-5.547l.384-.346c2.08,2.308,5.349,5.376,9.712,5.376,4.12,0,7.126-2.717,9.522-5.375l.383.346C-44.941,1054.111-48.051,1056.915-52.375,1056.915Z" transform="translate(70.652 -1030.365)" fill="#c46966"/>
            <rect id="Rectangle_162" data-name="Rectangle 162" width="0.517" height="2.789" transform="translate(3.596 8.036) rotate(-6.388)" fill="#c46966"/>
            <rect id="Rectangle_163" data-name="Rectangle 163" width="2.708" height="0.517" transform="translate(31.935 10.674) rotate(-84.024)" fill="#c46966"/>
            <g id="Group_1577" data-name="Group 1577">
              <path id="Path_927" data-name="Path 927" d="M-73.935,1025.948c-.105-.382-.988-3.759.234-4.684a1.069,1.069,0,0,1,.947-.169,1.873,1.873,0,0,1,.968,1.058l-.482.185c-.068-.173-.314-.646-.646-.753a.563.563,0,0,0-.489.1c-.7.529-.393,2.813-.034,4.125Z" transform="translate(74.342 -1021.047)" fill="#c46966"/>
              <path id="Path_928" data-name="Path 928" d="M-23.133,1025.948l-.5-.136c.359-1.313.663-3.6-.048-4.136a.553.553,0,0,0-.474-.09c-.331.108-.579.58-.646.753l-.482-.185a1.87,1.87,0,0,1,.968-1.059,1.06,1.06,0,0,1,.932.159C-22.146,1022.188-23.028,1025.566-23.133,1025.948Z" transform="translate(59.092 -1021.047)" fill="#c46966"/>
            </g>
          </g>
          <path id="Path_929" data-name="Path 929" d="M-71.321,1011.712a8.7,8.7,0,0,1,2.134,5.115c-.234-7.189,3.105-9.768,3.059-18.617-4.4.455-6.24,6.979-5.679,13.306Z" transform="translate(74.927 -994.54)" fill="#fff"/>
          <path id="Path_930" data-name="Path 930" d="M-27.232,1011.712a8.7,8.7,0,0,0-2.134,5.115c.234-7.189-3.105-9.768-3.059-18.617,4.4.455,6.24,6.979,5.679,13.306Z" transform="translate(62.655 -994.54)" fill="#fff"/>
        </g>
      </g>
    </g>
    <g id="Group_1553" data-name="Group 1553" transform="translate(1058.27 449.221)">
      <circle id="Ellipse_47" data-name="Ellipse 47" cx="38.468" cy="38.468" r="38.468" transform="translate(0 54.402) rotate(-45)" fill="#fce8e3"/>
      <g id="Group_1552" data-name="Group 1552" transform="translate(20.86 9.238)">
        <path id="Path_875" data-name="Path 875" d="M-36.842,890.013c10.859-7.364,4.38-19.457-5.461-35.643a23.743,23.743,0,0,1-2.88-7.615A17.222,17.222,0,0,0-62.05,833.009a17.222,17.222,0,0,0-16.9,13.939,28.455,28.455,0,0,1-2.724,7.936c-9.05,17.121-17.908,30.916-4.977,35.13Z" transform="translate(95.551 -824.538)" fill="#4c224b"/>
        <rect id="Rectangle_151" data-name="Rectangle 151" width="18.02" height="22.989" transform="translate(24.513 40.1)" fill="#e2988f"/>
        <g id="Group_1547" data-name="Group 1547" transform="translate(0 55.969)">
          <path id="Path_876" data-name="Path 876" d="M-30.032,911.973c-8.481-3.564-23.958-6.248-23.958-6.248-5.943,5-13.454,4.967-18.128,0,0,0-15.669,2.32-24.513,5.419a38.451,38.451,0,0,0,31.755,19.587c.612.019,1.221.043,1.838.043A38.443,38.443,0,0,0-30.032,911.973Z" transform="translate(96.631 -903.11)" fill="#f4ba5d"/>
          <path id="Path_877" data-name="Path 877" d="M-62.662,901.931l-3.549,3.187s2.072,8.934,6.3,9.1,6.233-5.938,6.233-5.938A14.465,14.465,0,0,1-62.662,901.931Z" transform="translate(87.175 -901.931)" fill="#fff"/>
          <path id="Path_878" data-name="Path 878" d="M-38.97,901.931l3.549,3.187s-2.072,8.934-6.3,9.1-6.233-5.938-6.233-5.938A14.465,14.465,0,0,0-38.97,901.931Z" transform="translate(81.501 -901.931)" fill="#fff"/>
        </g>
        <g id="Group_1551" data-name="Group 1551" transform="translate(14.308 0)">
          <circle id="Ellipse_48" data-name="Ellipse 48" cx="8.27" cy="8.27" r="8.27" transform="translate(9.728 16.326) rotate(-80.783)" fill="#4c224b"/>
          <g id="Group_1550" data-name="Group 1550" transform="translate(0 12.262)">
            <g id="Group_1548" data-name="Group 1548" transform="translate(5.016)">
              <path id="Path_879" data-name="Path 879" d="M-54.414,838.51h0c-11.616.013-14.259,8.713-14.015,17.472,0,6.315-.445,8.363.141,9.925.327,2.224,4.843,13.576,13.875,13.576s13.164-10.753,13.96-13.576c.586-1.562.056-3.61.056-9.925C-40.155,847.223-42.8,838.523-54.414,838.51Z" transform="translate(68.591 -838.51)" fill="#e2988f"/>
            </g>
            <g id="Group_1549" data-name="Group 1549" transform="translate(10.011 36.339)">
              <path id="Path_880" data-name="Path 880" d="M-52.16,896.132c-3.383,0-6.472-1.53-9.182-4.548l.385-.345c2.607,2.9,5.566,4.375,8.8,4.375a11.607,11.607,0,0,0,8.839-4.364l.387.342A12.1,12.1,0,0,1-52.16,896.132Z" transform="translate(61.342 -891.24)" fill="#c46966"/>
            </g>
            <path id="Path_881" data-name="Path 881" d="M-70.181,863.346s-2.335-3.013-4.734-1.251-.065,11.767,4.734,10S-70.181,863.346-70.181,863.346Z" transform="translate(75.869 -845.67)" fill="#e2988f"/>
            <path id="Path_882" data-name="Path 882" d="M-29.32,863.346s2.335-3.013,4.734-1.251.065,11.767-4.734,10S-29.32,863.346-29.32,863.346Z" transform="translate(62.063 -845.67)" fill="#e2988f"/>
            <rect id="Rectangle_152" data-name="Rectangle 152" width="0.516" height="4.341" transform="matrix(0.99, -0.138, 0.138, 0.99, 4.272, 22.374)" fill="#c46966"/>
            <rect id="Rectangle_153" data-name="Rectangle 153" width="4.318" height="0.516" transform="matrix(0.093, -0.996, 0.996, 0.093, 33.172, 26.614)" fill="#c46966"/>
            <path id="Path_883" data-name="Path 883" d="M-72.938,868.178c-.531-1.547-.558-2.651-.08-3.28a1.3,1.3,0,0,1,1.036-.5l-.03.516.015-.258-.012.258a.752.752,0,0,0-.6.308c-.248.334-.422,1.09.163,2.792Z" transform="translate(75.089 -846.556)" fill="#c46966"/>
            <path id="Path_884" data-name="Path 884" d="M-23.375,868.178l-.489-.168c.587-1.712.409-2.467.158-2.8a.761.761,0,0,0-.6-.3l-.03-.516a1.294,1.294,0,0,1,1.037.5C-22.817,865.527-22.844,866.631-23.375,868.178Z" transform="translate(59.849 -846.556)" fill="#c46966"/>
            <path id="Path_885" data-name="Path 885" d="M-24.029,875.789a1.07,1.07,0,0,1-1.07,1.07,1.07,1.07,0,0,1-1.07-1.07,1.071,1.071,0,0,1,1.07-1.07A1.071,1.071,0,0,1-24.029,875.789Z" transform="translate(60.42 -849.765)" fill="#fff"/>
            <path id="Path_886" data-name="Path 886" d="M-70.618,875.789a1.07,1.07,0,0,1-1.07,1.07,1.07,1.07,0,0,1-1.07-1.07,1.071,1.071,0,0,1,1.07-1.07A1.071,1.071,0,0,1-70.618,875.789Z" transform="translate(74.902 -849.765)" fill="#fff"/>
          </g>
          <path id="Path_887" data-name="Path 887" d="M-69.192,851.13a71.07,71.07,0,0,0,29.227,0s.192-14.225-14.223-14.7S-69.192,851.13-69.192,851.13Z" transform="translate(73.794 -825.599)" fill="#4c224b"/>
          <path id="Path_888" data-name="Path 888" d="M-43.665,835.411a21.571,21.571,0,0,0-16.174,0l-.189-.481a22.067,22.067,0,0,1,16.551,0Z" transform="translate(70.945 -824.634)" fill="#703870"/>
          <path id="Path_889" data-name="Path 889" d="M-28.048,852.6a19.091,19.091,0,0,0-4.2-10.5l.4-.327a19.6,19.6,0,0,1,4.315,10.776Z" transform="translate(62.31 -827.263)" fill="#703870"/>
          <path id="Path_890" data-name="Path 890" d="M-69.508,852.6l-.514-.05a19.6,19.6,0,0,1,4.315-10.776l.4.328A19.092,19.092,0,0,0-69.508,852.6Z" transform="translate(74.052 -827.263)" fill="#703870"/>
          <path id="Path_891" data-name="Path 891" d="M-62.721,855.835l-.515-.042a30.2,30.2,0,0,1,1.38-6.813l.491.16A29.576,29.576,0,0,0-62.721,855.835Z" transform="translate(71.942 -829.503)" fill="#703870"/>
          <path id="Path_892" data-name="Path 892" d="M-36.173,856.755l-.517-.017a19.338,19.338,0,0,0-.726-5.4l.5-.13A19.866,19.866,0,0,1-36.173,856.755Z" transform="translate(63.916 -830.195)" fill="#703870"/>
          <path id="Path_893" data-name="Path 893" d="M-38.465,847.908c-.38-1.186-.707-1.973-.71-1.981l.476-.2c.014.032.338.813.726,2.021Z" transform="translate(64.463 -828.492)" fill="#703870"/>
        </g>
      </g>
    </g>
  </g>
</svg>
