<?xml version="1.0" encoding="utf-8"?>
<!-- Generator: Adobe Illustrator 16.0.0, SVG Export Plug-In . SVG Version: 6.00 Build 0)  -->
<!DOCTYPE svg PUBLIC "-//W3C//DTD SVG 1.1//EN" "http://www.w3.org/Graphics/SVG/1.1/DTD/svg11.dtd">
<svg version="1.1" xmlns="http://www.w3.org/2000/svg" xmlns:xlink="http://www.w3.org/1999/xlink" x="0px" y="0px"
	 width="1615.306px" height="1393.045px" viewBox="0 0 1615.306 1393.045" enable-background="new 0 0 1615.306 1393.045"
	 xml:space="preserve">
<g id="BACKGROUND" display="none">
	<rect x="-93.479" y="-349.522" display="inline" fill="#FFFFFF" width="2000" height="2000"/>
</g>
<g id="OBJECTS">
	<g>
		<g>
			<g>
				<path fill="#F7F0E3" d="M1492.575,1001.603c-24.103-54.82-70.389-100.566-125.988-123.083
					c-57.914-23.453-124.411-14.915-185.411-22.771c-52.979-6.823-91.205-30.475-122.838-72.524
					c-30.311-40.291-57.486-84.912-107.045-103.549c-39.159-14.726-83.679-10.645-122.598,4.701
					c-71.715,28.276-125.881,88.399-171.499,148.296c-41.65,54.687-75.622,114.568-152.661,116.522
					c-77.088,1.955-150.477-42.019-228.095-30.366c-102.584,15.399-188.015,100.797-205.917,202.464
					c-16.778,95.283,25.324,187.696,97.653,241.994h1243.222C1502.536,1266.602,1550.361,1133.039,1492.575,1001.603z"/>
				<g>
					<path fill="#FFFFFF" d="M368.723,1363.287h3.42c23.75-26.104,42.356-57.781,54.183-92.944
						c19.143-56.911,18.336-116.638-2.272-168.178c-10.415-26.048-25.454-50.323-39.998-73.799
						c-14.751-23.809-30.002-48.429-40.354-74.811c-4.28-10.908-7.442-22.621-9.343-34.57c-0.857-0.111-1.715-0.204-2.573-0.309
						c1.912,12.376,5.162,24.508,9.59,35.793c10.434,26.594,25.746,51.311,40.556,75.214c14.487,23.384,29.468,47.566,39.801,73.408
						c20.388,50.991,21.178,110.105,2.224,166.456C411.982,1305.146,392.987,1337.118,368.723,1363.287z"/>
					<path fill="#FFFFFF" d="M1405.388,1254.864c25.616,5.458,50.301,10.354,74.174,13.433c0.409-0.788,0.807-1.581,1.21-2.372
						c-24.07-3.06-48.985-7.992-74.86-13.506c-39.4-8.395-82.044-17.481-124.339-17.481c-26.187,0-52.239,3.484-77.302,12.771
						c-9.495,3.519-18.646,7.981-27.356,13.299c-22.627-9.644-45.376-20.174-67.913-31.731
						c16.354-12.319,32.876-24.383,49.578-36.045c123.979-86.571,238.396-135.65,348.937-149.581
						c-0.222-0.81-0.454-1.619-0.684-2.429c-110.835,14.043-225.503,63.248-349.684,149.959
						c-17.056,11.911-33.929,24.238-50.615,36.824c-25.345-13.094-50.384-27.483-74.619-43.362
						c-43.955-28.802-96.24-69.912-141.901-124.536c176.947-19.851,357.102-44.863,504.218-143.188
						c5.588-3.734,11.776-8.137,18.188-13.131c-0.711-0.504-1.427-1-2.143-1.496c-6.144,4.759-12.069,8.962-17.434,12.547
						c-147.08,98.301-327.565,123.12-504.744,142.969c-32.266-39.028-61.096-84.87-81.13-137.942
						c-31.208-82.668-29.561-163.794,4.521-222.575c1.48-2.553,3.043-5.065,4.654-7.554c-1.424,0.653-2.834,1.331-4.244,2.009
						c-0.877,1.421-1.738,2.849-2.573,4.29c-34.459,59.436-36.172,141.34-4.697,224.715c19.927,52.783,48.498,98.444,80.503,137.387
						c-10.256,1.147-20.515,2.28-30.742,3.408c-36.895,4.072-75.048,8.284-112.094,13.052c-13.522,1.741-27.274,3.772-40.957,6.316
						c-29.333-61.907-61.553-122.303-103.204-174.097c-0.595,0.594-1.202,1.17-1.803,1.755
						c41.294,51.402,73.314,111.347,102.467,172.82c-59.68,11.382-117.632,32.778-148.574,82.58
						c-28.897,46.509-28.872,110.799,0.078,191.085c1,2.774,2.032,5.513,3.078,8.231h2.678c-1.146-2.973-2.286-5.979-3.404-9.081
						c-28.677-79.529-28.779-143.089-0.305-188.916c30.575-49.209,88.208-70.32,147.556-81.565
						c10.355,21.904,20.357,43.989,30.3,65.938l1.082,2.388c34.526,76.219,70.237,149.774,116.995,211.237h3.119
						c-47.182-61.577-83.094-135.574-117.836-212.268l-1.082-2.388c-9.857-21.763-19.777-43.66-30.038-65.381
						c13.419-2.48,26.905-4.468,40.171-6.174c37.022-4.766,75.162-8.978,112.047-13.048c10.771-1.188,21.567-2.38,32.373-3.589
						c46.096,55.479,99.048,97.161,143.506,126.292c23.972,15.705,48.729,29.961,73.779,42.944
						c-42.527,32.165-83.895,66.008-124.282,99.053c-13.985,11.441-28.132,23.002-42.391,34.558h3.965
						c13.448-10.911,26.804-21.821,40.008-32.624c40.674-33.273,82.334-67.358,125.164-99.715
						c22.409,11.529,45.031,22.041,67.538,31.67c-30.793,19.583-55.886,49.908-71.06,86.731c-1.899,4.61-3.559,9.265-5.095,13.938
						h2.633c1.45-4.352,3.004-8.688,4.774-12.985c15.215-36.924,40.521-67.219,71.548-86.489
						c62.918,26.729,124.753,46.572,177.886,62.292l1.999,0.592c22.392,6.62,45.293,13.404,65.549,24.303
						c0.566-0.646,1.136-1.289,1.698-1.938c-20.586-11.17-43.824-18.048-66.538-24.763l-2-0.591
						c-52.593-15.563-113.719-35.162-175.962-61.494c8.11-4.827,16.597-8.904,25.383-12.161
						C1270.002,1226.017,1341.931,1241.345,1405.388,1254.864z"/>
					<path fill="#FFFFFF" d="M174.441,1092.927c11.042,45.197,6.116,94.008-13.517,133.92
						c-12.859,26.144-31.429,49.81-54.303,70.134c0.455,0.708,0.92,1.409,1.382,2.113c23.244-20.593,42.11-44.604,55.164-71.144
						c19.888-40.43,24.882-89.86,13.702-135.617c-8.735-35.752-26.295-66.034-50.557-87.944c-0.541,0.637-1.078,1.275-1.612,1.917
						C148.558,1027.877,165.835,1057.702,174.441,1092.927z"/>
				</g>
			</g>
			<path fill="#F7F0E3" d="M740.263,520.367c21.779,22.255,31.54,59.747,19.532,94.314c-11.627,33.47-37.116,61.195-67.739,79.017
				c-24.639,14.34-56.779,22.251-81.011,7.234c-18.108-11.222-27.498-33.238-28.02-54.535c-0.522-21.297,6.639-42.052,15.491-61.429
				c12.478-27.314,29.271-53.801,54.289-70.411C687.289,491.662,719.328,498.976,740.263,520.367z"/>
		</g>
		<g>
			<path fill="#E9DDCA" d="M451.572,130.169h-180.34V49.605h180.34V130.169z M274.982,126.419h172.84V53.355h-172.84V126.419z"/>
			<path fill="#E9DDCA" d="M334.251,207.213h-180.34v-80.564h180.34V207.213z M157.661,203.463h172.84v-73.064h-172.84V203.463z"/>
		</g>
		<g>
			<g>
				<path fill="#E49B31" d="M1477.669,293.06c-11.677-38.829-32.216-74.478-61.617-107.07
					c-29.462-32.592-69.642-59.497-120.54-80.776s-115.57-31.919-194.014-31.919c-62.575,0-126.349,8.438-191.319,25.315
					c-65.03,16.938-121.438,41.03-169.283,72.338l62.276,170.979l-33.377,27.039l48.407,14.226
					c47.784-25.01,91.318-43.17,130.6-54.483c39.222-11.251,80.899-16.876,125.091-16.876c44.132,0,77.546,10.64,100.241,31.919
					c22.694,21.341,34.012,46.961,34.012,77.046c0,36.322-11.677,68.546-34.91,96.736c-23.354,28.189-49.103,56.684-77.307,85.484
					c-19.581,19.995-38.623,40.663-57.006,61.942c-18.384,21.341-34.672,44.149-48.743,68.608
					c-14.132,24.397-25.449,50.691-34.013,78.88c-8.623,28.189-12.874,59.803-12.874,94.841c0,11.313,0.239,24.765,0.898,40.419
					c0.11,2.888,0.262,5.702,0.435,8.482h-45.764l49.939,33.771h242.816c-1.257-7.521-1.856-16.266-1.856-26.294s0-17.549,0-22.563
					c0-21.279,4.312-42.253,12.875-62.921c8.563-20.668,19.341-40.357,32.216-59.191c12.874-18.771,27.245-36.627,43.233-53.504
					c15.929-16.938,31.258-32.897,45.989-47.939c19.58-19.996,39.82-41.275,60.659-63.839c20.838-22.563,39.281-46.289,55.21-71.359
					c15.928-25.07,29.102-52.281,39.521-81.755c10.419-29.412,15.688-61.637,15.688-96.735
					C1495.155,368.822,1489.287,331.888,1477.669,293.06z"/>
				<path fill="#FBC343" d="M1022.486,299.904c-43.674,0-84.861,5.444-123.623,16.333c-38.821,10.948-81.844,28.524-129.067,52.728
					l-76.399-205.407c47.284-30.299,103.029-53.616,167.297-70.008c64.208-16.333,127.233-24.5,189.074-24.5
					c77.523,0,141.436,10.297,191.737,30.891c50.302,20.594,90.01,46.632,119.126,78.174
					c29.056,31.542,49.354,66.043,60.894,103.621c11.48,37.578,17.28,73.322,17.28,107.23c0,33.968-5.208,65.155-15.505,93.62
					c-10.297,28.524-23.316,54.858-39.058,79.121s-33.968,47.224-54.563,69.061c-20.594,21.837-40.596,42.431-59.947,61.782
					c-14.558,14.558-29.707,30.003-45.448,46.396c-15.801,16.333-30.004,33.613-42.727,51.78
					c-12.724,18.228-23.376,37.282-31.838,57.285c-8.463,20.002-12.724,40.3-12.724,60.894c0,4.853,0,12.132,0,21.837
					s0.592,18.168,1.835,25.447H898.863c-2.485-12.132-3.965-25.743-4.557-40.893c-0.651-15.149-0.888-28.169-0.888-39.117
					c0-33.908,4.201-64.504,12.724-91.785c8.462-27.281,19.646-52.728,33.613-76.34c13.906-23.671,30.003-45.744,48.171-66.397
					c18.167-20.594,36.986-40.596,56.337-59.948c27.873-27.873,53.32-55.45,76.399-82.731c22.961-27.281,34.501-58.468,34.501-93.62
					c0-29.116-11.185-53.912-33.613-74.564C1099.122,310.201,1066.1,299.904,1022.486,299.904z"/>
			</g>
			<g>
				<path fill="#E49B31" d="M1208.236,1225.656c0,43.777-14.172,77.558-42.516,101.388c-28.344,23.879-60.376,35.77-96.146,35.77
					c-35.818,0-67.852-11.891-96.195-35.77c-28.295-23.83-42.467-57.61-42.467-101.388c0-43.729,14.172-77.509,42.468-101.389
					c43.63-36.819,108.177-45.023,159.26-19.182C1177.967,1128.017,1208.236,1174.584,1208.236,1225.656z"/>
				<path fill="#FBC343" d="M1160.736,1225.656c0,43.777-14.172,77.558-42.516,101.388c-28.344,23.879-60.376,35.77-96.146,35.77
					c-35.818,0-67.852-11.891-96.195-35.77c-28.295-23.83-42.467-57.61-42.467-101.388c0-43.729,14.172-77.509,42.467-101.388
					c28.344-23.83,60.377-35.77,96.195-35.77c35.77,0,67.802,11.939,96.146,35.77
					C1146.564,1148.147,1160.736,1181.927,1160.736,1225.656z"/>
			</g>
		</g>
		<g>
			<g>
				<circle fill="#D3DFFF" cx="416.187" cy="600.217" r="26.15"/>
				
					<ellipse transform="matrix(0.9829 0.1842 -0.1842 0.9829 127.5438 -69.8793)" fill="#D3DFFF" cx="439.821" cy="651.424" rx="14.813" ry="14.707"/>
				<g>
					<circle fill="#D3DFFF" cx="351.658" cy="468.551" r="102.961"/>
					<g>
						<circle fill="#FFFFFF" cx="312.123" cy="468.551" r="12.972"/>
						<circle fill="#FFFFFF" cx="351.658" cy="468.551" r="12.972"/>
						<circle fill="#FFFFFF" cx="391.193" cy="468.551" r="12.972"/>
					</g>
				</g>
			</g>
			<g>
				<g>
					<g>
						<path fill="#102048" d="M277.9,1311.272l9.62,37.087c2.509,9.672,11.86,16.208,22.206,15.504
							c31.543-2.144,97.081-9.871,134.696-37.595l-10.693-53.451c-51.718-2.922-100.084-0.045-141.965,14.054
							C281.278,1290.401,275.213,1300.912,277.9,1311.272z"/>
						<path fill="#FFFFFF" d="M338.179,1340.794c-0.547,0-1.049-0.361-1.204-0.914l-12.917-46.25
							c-0.186-0.665,0.203-1.354,0.868-1.54c0.669-0.184,1.355,0.203,1.541,0.868l12.917,46.25c0.186,0.665-0.203,1.354-0.868,1.54
							C338.403,1340.779,338.29,1340.794,338.179,1340.794z"/>
						<path fill="#FFFFFF" d="M366.095,1334.544c-0.547,0-1.049-0.361-1.204-0.914l-12.917-46.25
							c-0.186-0.665,0.203-1.354,0.868-1.54c0.67-0.187,1.355,0.203,1.541,0.868l12.917,46.25c0.186,0.665-0.203,1.354-0.868,1.54
							C366.319,1334.529,366.206,1334.544,366.095,1334.544z"/>
					</g>
					<polygon fill="#FBC343" points="398.518,1110.794 278.314,1146.469 367.583,1268.782 495.741,1278.976 672.51,1204.229 
						605.338,1103.149 					"/>
					<path fill="#FBC343" d="M546.709,1127.782c263.976-78.145,306.4,155.157-105.473,197.627
						c-14.548-16.37-31.548-44.774-38.3-68.519l217.504-100.512L546.709,1127.782z"/>
					<path fill="#F9B384" d="M557.922,1294.986c-12.346-3.953-24.176-11.764-24.176-11.764l-42.425,13.307l9.722,46.151
						l44.072,8.954C558.542,1327.078,559.325,1306.916,557.922,1294.986z"/>
					<path fill="#E49B31" d="M403.879,1258.512l-1.884-3.242c45.375-26.371,161.603-89.724,260.628-108.408l0.695,3.686
						C564.864,1169.123,449.087,1232.238,403.879,1258.512z"/>
					<path fill="#FBC343" d="M398.518,1110.794c-245.709-46.717-309.347,189.416,102.526,231.887
						c14.548-16.37,25.951-35.715,32.703-59.458c-63.268-42.334-134.006-82.569-211.534-120.898L398.518,1110.794z"/>
					<path fill="#E49B31" d="M532.74,1284.805c-11.688-7.439-23.867-15.304-36.761-23.629
						c-64.727-41.791-138.09-89.158-200.42-116.168l1.491-3.441c62.614,27.133,136.114,74.589,200.962,116.459
						c12.889,8.322,25.063,16.183,36.741,23.615L532.74,1284.805z"/>
					<path fill="#E49B31" d="M218.242,1227.875l-3.282-1.813c9.223-16.697,23.996-27.96,43.908-33.474l1.001,3.613
						C240.698,1201.512,227.082,1211.872,218.242,1227.875z"/>
					<path fill="#E49B31" d="M731.075,1213.659c-8.84-16.002-22.456-26.362-41.626-31.673l1.001-3.613
						c19.913,5.515,34.685,16.777,43.908,33.474L731.075,1213.659z"/>
					<path fill="#E49B31" d="M478.036,1340.606l-2.741-2.559c19.655-21.051,31.727-43.273,36.905-67.938l3.67,0.77
						C510.547,1296.233,498.171,1319.042,478.036,1340.606z"/>
					<g>
						<path fill="#102048" d="M680.465,1281.24c-31.48-19.448-92.509,14.157-107.829,15.855c-4.466,0.495-9.633-0.482-14.713-2.109
							c1.402,11.93,0.619,32.092-12.806,56.648l7.485,1.521c0,0,51.752,18.971,106.651,7.928
							C709.927,1350.892,705.213,1296.529,680.465,1281.24z"/>
						<path fill="#FFFFFF" d="M637.555,1344.856c-0.125,0-0.251-0.019-0.377-0.058c-0.658-0.208-1.023-0.91-0.815-1.568
							c3.74-11.843,5.372-35.141-5.461-50.787c-0.393-0.568-0.251-1.347,0.316-1.739c0.566-0.395,1.346-0.253,1.739,0.315
							c11.344,16.386,9.677,40.651,5.789,52.963C638.578,1344.516,638.085,1344.856,637.555,1344.856z"/>
						<path fill="#FFFFFF" d="M612.867,1349.544c-0.125,0-0.251-0.019-0.377-0.058c-0.658-0.208-1.023-0.91-0.815-1.568
							c3.74-11.843,5.372-35.141-5.461-50.787c-0.393-0.568-0.251-1.347,0.316-1.739c0.566-0.394,1.345-0.253,1.739,0.315
							c11.344,16.386,9.677,40.651,5.789,52.963C613.89,1349.203,613.398,1349.544,612.867,1349.544z"/>
					</g>
				</g>
				<g>
					<g>
						<path fill="#F9B384" d="M355.048,806.331c0,0,61.881-52.62,59.59-62.62c-1.638-7.146-19.167,3.333-19.167,3.333
							s24.583-29.166,23.333-32.708c-2.234-6.329-19.236,5.468-19.236,5.468s11.492-16.541,5.998-19.235
							c-5.494-2.695-17.472,7.498-17.472,7.498s6.998-9.184,3.709-11.594c-3.288-2.409-17.472,7.498-17.472,7.498
							s5.09-11.58-5.724-7.189c-10.813,4.39-86.633,73.97-86.633,73.97L355.048,806.331z"/>
						<g>
							<path fill="#E28B6D" d="M380.366,743.919c-0.301,0-0.603-0.108-0.843-0.327c-10.622-9.705-15.305-12.061-27.024-15.666
								c-0.66-0.202-1.03-0.902-0.827-1.562c0.203-0.66,0.902-1.032,1.563-0.827c12.142,3.734,16.991,6.173,27.976,16.209
								c0.51,0.466,0.545,1.257,0.08,1.766C381.043,743.782,380.705,743.919,380.366,743.919z"/>
							<path fill="#E28B6D" d="M361.722,772.461c-0.058,0-0.116-0.004-0.174-0.012c-0.684-0.096-1.161-0.728-1.065-1.411
								c1.216-8.701,3.955-14.139,8.374-16.623c3.777-2.125,8.692-1.906,14.609,0.648c0.634,0.273,0.926,1.009,0.652,1.643
								c-0.273,0.634-1.009,0.928-1.643,0.652c-5.161-2.229-9.33-2.486-12.393-0.764c-3.641,2.047-6.038,7.023-7.124,14.789
								C362.871,772.009,362.336,772.461,361.722,772.461z"/>
							<path fill="#E28B6D" d="M358.804,719.856c-0.332,0-0.664-0.132-0.91-0.393c-0.474-0.503-0.45-1.294,0.052-1.767
								l15.528-14.635c0.502-0.476,1.293-0.45,1.767,0.052c0.474,0.503,0.45,1.294-0.052,1.767l-15.528,14.635
								C359.42,719.744,359.112,719.856,358.804,719.856z"/>
							<path fill="#E28B6D" d="M373.179,724.856c-0.312,0-0.623-0.115-0.866-0.349c-0.498-0.478-0.514-1.269-0.036-1.767
								l14.915-15.54c0.478-0.5,1.269-0.516,1.768-0.036c0.498,0.478,0.514,1.269,0.036,1.767l-14.915,15.54
								C373.835,724.728,373.507,724.856,373.179,724.856z"/>
							<path fill="#E28B6D" d="M387.866,733.606c-0.305,0-0.611-0.111-0.852-0.336c-0.505-0.471-0.533-1.262-0.062-1.767
								l11.702-12.553c0.472-0.503,1.261-0.532,1.767-0.062c0.505,0.471,0.533,1.262,0.062,1.767l-11.702,12.553
								C388.535,733.473,388.201,733.606,387.866,733.606z"/>
						</g>
					</g>
					<g>
						<path fill="#3A6BEA" d="M588.804,1158.287l-226.25,8.75l-25-206.25c0,0,75.743-71.842,104.884-98.298l49.195-2.522
							C644.264,929.345,619.271,1015.995,588.804,1158.287z"/>
						<path fill="#3A6BEA" d="M491.633,859.967c0,0,174.621,14.933,229.671,134.57c53.867,117.065-167.5,158.75-167.5,158.75
							L491.633,859.967z"/>
						<path fill="#3A6BEA" d="M292.03,885.604l72.16-87.813l-67.479-40.895c-28.148,19.571-82.58,63.902-128.708,114.102
							c-10.182,11.081-18.135,24.023-22.141,38.273c-3.418,12.161-4.04,24.172-2.118,35.935l0,0
							c5.007,30.655,29.121,54.313,61.311,58.081c27.491,3.22,132.5-5,217.5-30l25-96.489
							C434.707,869.508,339.23,868.242,292.03,885.604z"/>
					</g>
					<g opacity="0.8">
						<path fill="#FFFFFF" d="M637.359,907.444c0.375-0.086,0.753-0.172,1.129-0.259c-0.788-0.468-1.581-0.921-2.372-1.38
							c-12.797,2.946-26.001,5.957-39.016,7.527c-7.822,0.942-33.956,2.669-41.594-14.743c-3.8-8.663-0.924-18.297,3.374-25.06
							c-0.628-0.183-1.249-0.358-1.873-0.536c-4.401,7.163-7.226,17.213-3.217,26.348c8.154,18.599,35.387,16.836,43.535,15.852
							C610.716,913.58,624.261,910.462,637.359,907.444z"/>
						<path fill="#FFFFFF" d="M718.852,1042.376c-8.342-3.223-16.96-6.555-26.02-5.7c-15.893,1.501-29.493,17.217-30.316,35.031
							c-0.563,12.146,4.077,24.877,12.924,36.074c0.533-0.333,1.064-0.667,1.593-1.005c-8.649-10.88-13.188-23.231-12.644-34.981
							c0.784-16.919,13.622-31.836,28.62-33.254c8.614-0.799,16.655,2.295,25.168,5.583c3.039,1.175,6.128,2.357,9.268,3.363
							c0.162-0.604,0.319-1.211,0.465-1.82C724.849,1044.683,721.826,1043.525,718.852,1042.376z"/>
						<path fill="#FFFFFF" d="M278.104,982.745c-10.902-9.017-27.842-11.426-46.467-6.611c-16.6,4.293-30.841,12.798-40.625,24.053
							c0.643,0.208,1.271,0.442,1.923,0.633c9.519-10.677,23.23-18.747,39.17-22.869c18.035-4.668,34.369-2.388,44.805,6.24
							c4.96,4.101,8.467,9.426,11.016,15.173c0.644-0.073,1.291-0.148,1.938-0.224C287.195,992.958,283.476,987.188,278.104,982.745
							z"/>
						<path fill="#FFFFFF" d="M179.547,858.736c20.428-5.076,40.362-12.205,58.748-22.796c6.947-4.001,14.792-9.104,20.309-16.594
							c5.869-7.972,7.818-17.461,5.217-25.384c-1.021-3.106-2.828-5.835-5.087-8.022c-0.479,0.391-0.96,0.787-1.442,1.183
							c2.109,2.008,3.799,4.538,4.748,7.426c2.414,7.347,0.565,16.201-4.944,23.685c-5.312,7.212-12.957,12.178-19.735,16.081
							c-17.342,9.99-36.1,16.899-55.368,21.89C181.175,857.046,180.361,857.891,179.547,858.736z"/>
					</g>
					<g>
						<path fill="#F9B384" d="M507.614,814.112l-0.032,3.201l-0.507,49.729l-0.063,5.389c-0.095,8.431-3.55,16.069-9.128,21.616
							c-5.547,5.515-13.186,8.97-21.648,9.033c-17.052,0.095-30.999-13.598-31.157-30.682l-0.603-61.457L507.614,814.112z"/>
						<path fill="#102048" d="M507.583,817.313l-0.507,49.729c-27.638-11.252-39.017-41.172-39.017-41.172L507.583,817.313z"/>
						<path fill="#F9B384" d="M518.518,730.531c9.905,11.886,38.827,79.238,9.508,102.218
							c-32.992,25.858-83.201-16.641-83.201-16.641l-6.735-78.446l43.581-11.489L518.518,730.531z"/>
						<path fill="#102048" d="M415.888,726.211c0,0-96.667,50.417-17.847,195.747c10.123,18.666,32.546,26.813,51.728,17.705h0
							c20.577-9.77,28.368-34.907,17.194-54.757c-12.893-22.904-25.337-52.397-20.025-74.345L415.888,726.211z"/>
						<circle fill="#FBC343" cx="425.016" cy="750.076" r="26.149"/>
						<path fill="#102048" d="M457.184,781.495c-2.826-16.314-4.547-27.501,11.941-35.909c0,0,58.108,10.565,69.202-11.357
							c11.093-21.923-5.811-56.523-41.204-32.487c-90.596-17.697-102.746,67.089-75.277,95.351l27.112-4.161
							C454.414,792.093,458.125,786.934,457.184,781.495z"/>
						<g>
							<circle fill="#102048" cx="502.174" cy="781.541" r="3.863"/>
							<circle fill="#102048" cx="528.323" cy="768.665" r="3.863"/>
							<path fill="#102048" d="M525.649,793.431c-0.271,0-0.542-0.1-0.753-0.301c-0.438-0.416-0.456-1.108-0.04-1.546
								c1.549-1.631,3.247-3.924,2.533-5.586c-0.741-1.726-3.872-2.472-5.306-2.472c-3.082,0-4.562-5.483-4.827-6.582
								c-0.142-0.587,0.219-1.178,0.806-1.319c0.586-0.146,1.178,0.218,1.32,0.806c0.563,2.316,1.837,4.908,2.701,4.908
								c1.475,0,5.986,0.697,7.316,3.796c0.95,2.213-0.045,4.89-2.957,7.955C526.227,793.316,525.938,793.431,525.649,793.431z"/>
							<path fill="#102048" d="M525.846,808.09c-0.21,0-0.423-0.061-0.611-0.188c-7.273-4.908-14.617-0.792-14.691-0.75
								c-0.522,0.301-1.191,0.122-1.494-0.403c-0.301-0.523-0.121-1.192,0.403-1.493c0.348-0.2,8.613-4.831,17.005,0.834
								c0.5,0.338,0.633,1.018,0.295,1.519C526.542,807.921,526.197,808.09,525.846,808.09z"/>
							<path fill="#102048" d="M500.482,764.81c2.198,4.137-1.632,4.967-6.119,7.351c-4.487,2.385-9.081,3.257-10.129,1.284
								s1.739-5.505,6.226-7.889C494.947,763.171,498.781,761.608,500.482,764.81z"/>
							<path fill="#102048" d="M516.846,757.344c0.966,3.692,3.719,2.075,7.724,1.027c4.005-1.047,7.24-3.06,6.779-4.821
								c-0.46-1.761-4.081-2.339-8.085-1.291S516.098,754.486,516.846,757.344z"/>
						</g>
						<circle opacity="0.4" fill="#EB5D60" cx="484.346" cy="799.567" r="11.391"/>
						
							<ellipse transform="matrix(0.611 -0.7917 0.7917 0.611 -461.4186 660.2749)" fill="#F9B384" cx="441.089" cy="799.609" rx="15.426" ry="17.531"/>
						<path fill="#102048" d="M447.867,805.325c-0.604,0-1.094-0.489-1.094-1.094c0-3.229-1.574-6.214-4.21-7.985
							c-2.254-1.517-4.942-1.872-7.188-0.957c-0.561,0.225-1.198-0.04-1.426-0.6s0.04-1.197,0.6-1.426
							c2.921-1.191,6.374-0.757,9.235,1.167c3.242,2.178,5.177,5.842,5.177,9.801C448.96,804.836,448.471,805.325,447.867,805.325z"
							/>
					</g>
					<g>
						
							<rect x="271.042" y="877.876" transform="matrix(0.7343 0.6788 -0.6788 0.7343 688.0149 56.1412)" fill="#102048" width="2.5" height="58.145"/>
						<path fill="#102048" d="M569.168,1068.239l-0.729-2.391c28.733-8.757,56.618-19.234,81.888-50.835l1.952,1.561
							C626.564,1048.734,598.292,1059.364,569.168,1068.239z"/>
					</g>
				</g>
				<g>
					<g>
						<path fill="#D3DFFF" d="M586.639,971.428H342.22c-8.79,0-15.916,7.708-15.916,17.218v174.507
							c0,9.51,7.125,17.219,15.916,17.219h244.419c8.79,0,15.916-7.709,15.916-17.219V988.646
							C602.554,979.136,595.429,971.428,586.639,971.428z"/>
					</g>
					<g>
						<path fill="#1F3C88" d="M477.332,1064.869c0.928,0,1.681,0.813,1.681,1.817v18.425c0,1.004-0.752,1.818-1.681,1.818h-25.806
							c-0.928,0-1.681-0.814-1.681-1.818v-18.425c0-1.004,0.752-1.817,1.681-1.817H477.332 M477.332,1059.869h-25.806
							c-3.684,0-6.681,3.059-6.681,6.817v18.425c0,3.76,2.997,6.818,6.681,6.818h25.806c3.684,0,6.681-3.059,6.681-6.818v-18.425
							C484.013,1062.928,481.016,1059.869,477.332,1059.869L477.332,1059.869z"/>
					</g>
				</g>
			</g>
		</g>
		<rect x="61.565" y="1360.787" fill="#102048" width="1473.676" height="5"/>
	</g>
</g>
</svg>
