<svg xmlns="http://www.w3.org/2000/svg" width="225.509" height="243.824" viewBox="0 0 225.509 243.824">
  <g id="Group_1723" data-name="Group 1723" transform="translate(-350 -215)">
    <g id="Group_1722" data-name="Group 1722" transform="translate(-8020.246 16220.324)">
      <path id="Path_1014" data-name="Path 1014" d="M112.324,0c62.035,0,112.324,50.482,112.324,112.755S174.359,225.509,112.324,225.509,0,175.027,0,112.755,50.289,0,112.324,0Z" transform="translate(8370.246 -15780.676) rotate(-90)" fill="#ec9219"/>
      <g id="Group_1721" data-name="Group 1721" transform="translate(7742.286 -16010.604)">
        <g id="Group_1719" data-name="Group 1719" transform="translate(679.29 37.21)">
          <path id="Path_1015" data-name="Path 1015" d="M807.044,250.4H696.193a7.156,7.156,0,0,1-6.973-6.829L679.3,45.335a6.343,6.343,0,0,1,6.29-6.829h110.85a7.157,7.157,0,0,1,6.974,6.829l9.92,198.237A6.341,6.341,0,0,1,807.044,250.4Z" transform="translate(-679.29 -38.506)" fill="#407bff"/>
          <path id="Path_1016" data-name="Path 1016" d="M807.044,250.4H696.193a7.156,7.156,0,0,1-6.973-6.829L679.3,45.335a6.343,6.343,0,0,1,6.29-6.829h110.85a7.157,7.157,0,0,1,6.974,6.829l9.92,198.237A6.341,6.341,0,0,1,807.044,250.4Z" transform="translate(-679.29 -38.506)" fill="#e1e9ff" opacity="0.8"/>
        </g>
        <path id="Path_1017" data-name="Path 1017" d="M813.679,238.2H707.393a6.865,6.865,0,0,1-6.687-6.556L691.194,41.336a6.086,6.086,0,0,1,6.031-6.556H803.511a6.865,6.865,0,0,1,6.686,6.556l9.513,190.309A6.085,6.085,0,0,1,813.679,238.2Z" transform="translate(-2.133 -0.628)" fill="#b299ff"/>
        <path id="Path_1018" data-name="Path 1018" d="M814.792,235.074H708.07a2.591,2.591,0,0,1-2.455-2.412L696.063,41.614a1.869,1.869,0,0,1,.474-1.4,1.739,1.739,0,0,1,1.323-.556H804.582a2.593,2.593,0,0,1,2.455,2.412l9.552,191.048a1.87,1.87,0,0,1-.474,1.4A1.741,1.741,0,0,1,814.792,235.074ZM697.86,39.88a1.532,1.532,0,0,0-1.165.486,1.646,1.646,0,0,0-.414,1.236l9.552,191.049a2.361,2.361,0,0,0,2.237,2.2H814.792a1.533,1.533,0,0,0,1.165-.485,1.646,1.646,0,0,0,.414-1.237L806.819,42.079a2.362,2.362,0,0,0-2.237-2.2Z" transform="translate(-3.007 -1.502)" fill="#fff"/>
        <ellipse id="Ellipse_64" data-name="Ellipse 64" cx="29.541" cy="31.103" rx="29.541" ry="31.103" transform="matrix(0.698, -0.716, 0.716, 0.698, 708.395, 79.277)" fill="#fff" opacity="0.3"/>
        <path id="Path_1019" data-name="Path 1019" d="M781.15,85.08a23.546,23.546,0,0,1-2.362,11.681,23.019,23.019,0,0,1-20.9,12.843,26.044,26.044,0,0,1-22.223-12.843A25.323,25.323,0,0,1,732.1,85.08a23.059,23.059,0,0,1,23.26-24.525A26.112,26.112,0,0,1,781.15,85.08Z" transform="translate(-5.52 -5.25)" fill="#fff"/>
        <path id="Path_1020" data-name="Path 1020" d="M779.575,103.245a23.019,23.019,0,0,1-20.9,12.843,26.044,26.044,0,0,1-22.223-12.843,37.08,37.08,0,0,1,21.224-6.532A40.321,40.321,0,0,1,779.575,103.245Z" transform="translate(-6.271 -6.525)" fill="#34bfa3"/>
        <ellipse id="Ellipse_65" data-name="Ellipse 65" cx="10.646" cy="11.209" rx="10.646" ry="11.209" transform="translate(735.143 71.24) rotate(-45.738)" fill="#34bfa3"/>
        <g id="Group_1720" data-name="Group 1720" transform="translate(715.882 139.499)">
          <path id="Path_1021" data-name="Path 1021" d="M796.47,175.221h-78.4a2.7,2.7,0,0,1-2.666-2.535l-.593-11.52a2.383,2.383,0,0,1,2.4-2.534h78.4a2.7,2.7,0,0,1,2.665,2.534l.594,11.52A2.384,2.384,0,0,1,796.47,175.221Z" transform="translate(-714.807 -144.788)" fill="#fff"/>
          <path id="Path_1022" data-name="Path 1022" d="M777.294,149.279H744.549a2.7,2.7,0,0,1-2.666-2.535l-.126-2.446a2.383,2.383,0,0,1,2.4-2.535h32.744a2.7,2.7,0,0,1,2.665,2.535l.126,2.446A2.383,2.383,0,0,1,777.294,149.279Z" transform="translate(-719.64 -141.763)" opacity="0.3"/>
          <path id="Path_1023" data-name="Path 1023" d="M788.123,243.009H739.079a4.6,4.6,0,0,1-4.539-4.317l-.291-5.657a4.059,4.059,0,0,1,4.094-4.317h49.043a4.6,4.6,0,0,1,4.539,4.317l.291,5.657A4.059,4.059,0,0,1,788.123,243.009Z" transform="translate(-718.292 -157.358)" opacity="0.3"/>
          <path id="Path_1024" data-name="Path 1024" d="M798.214,209.056h-78.4a2.7,2.7,0,0,1-2.665-2.534L716.553,195a2.384,2.384,0,0,1,2.4-2.535h78.4A2.7,2.7,0,0,1,800.024,195l.593,11.52A2.383,2.383,0,0,1,798.214,209.056Z" transform="translate(-715.119 -150.856)" fill="#fff"/>
          <path id="Path_1025" data-name="Path 1025" d="M729.7,168.125a2.639,2.639,0,0,1-2.661,2.807,2.988,2.988,0,0,1-2.951-2.807,2.639,2.639,0,0,1,2.661-2.806A2.989,2.989,0,0,1,729.7,168.125Z" transform="translate(-716.471 -145.988)" fill="#263238"/>
          <path id="Path_1026" data-name="Path 1026" d="M740.211,168.125a2.639,2.639,0,0,1-2.661,2.807,2.988,2.988,0,0,1-2.951-2.807,2.639,2.639,0,0,1,2.661-2.806A2.988,2.988,0,0,1,740.211,168.125Z" transform="translate(-718.355 -145.988)" fill="#263238"/>
          <path id="Path_1027" data-name="Path 1027" d="M750.718,168.125a2.638,2.638,0,0,1-2.661,2.807,2.989,2.989,0,0,1-2.951-2.807,2.639,2.639,0,0,1,2.662-2.806A2.988,2.988,0,0,1,750.718,168.125Z" transform="translate(-720.24 -145.988)" fill="#263238"/>
          <path id="Path_1028" data-name="Path 1028" d="M761.225,168.125a2.638,2.638,0,0,1-2.661,2.807,2.988,2.988,0,0,1-2.95-2.807,2.638,2.638,0,0,1,2.661-2.806A2.988,2.988,0,0,1,761.225,168.125Z" transform="translate(-722.124 -145.988)" fill="#263238"/>
          <path id="Path_1029" data-name="Path 1029" d="M731.448,201.961a2.639,2.639,0,0,1-2.662,2.806,2.988,2.988,0,0,1-2.95-2.806,2.638,2.638,0,0,1,2.661-2.807A2.989,2.989,0,0,1,731.448,201.961Z" transform="translate(-716.784 -152.055)" fill="#263238"/>
          <path id="Path_1030" data-name="Path 1030" d="M741.955,201.961a2.639,2.639,0,0,1-2.661,2.806,2.988,2.988,0,0,1-2.951-2.806A2.639,2.639,0,0,1,739,199.154,2.989,2.989,0,0,1,741.955,201.961Z" transform="translate(-718.668 -152.055)" fill="#263238"/>
          <path id="Path_1031" data-name="Path 1031" d="M752.462,201.961a2.639,2.639,0,0,1-2.661,2.806,2.988,2.988,0,0,1-2.951-2.806,2.639,2.639,0,0,1,2.661-2.807A2.988,2.988,0,0,1,752.462,201.961Z" transform="translate(-720.553 -152.055)" fill="#263238"/>
          <path id="Path_1032" data-name="Path 1032" d="M762.969,201.961a2.639,2.639,0,0,1-2.661,2.806,2.989,2.989,0,0,1-2.951-2.806,2.639,2.639,0,0,1,2.662-2.807A2.988,2.988,0,0,1,762.969,201.961Z" transform="translate(-722.437 -152.055)" fill="#263238"/>
          <path id="Path_1033" data-name="Path 1033" d="M773.476,201.961a2.638,2.638,0,0,1-2.661,2.806,2.988,2.988,0,0,1-2.95-2.806,2.638,2.638,0,0,1,2.661-2.807A2.988,2.988,0,0,1,773.476,201.961Z" transform="translate(-724.321 -152.055)" fill="#263238"/>
          <path id="Path_1034" data-name="Path 1034" d="M783.984,201.961a2.639,2.639,0,0,1-2.662,2.806,2.988,2.988,0,0,1-2.95-2.806,2.638,2.638,0,0,1,2.661-2.807A2.989,2.989,0,0,1,783.984,201.961Z" transform="translate(-726.206 -152.055)" fill="#263238"/>
        </g>
      </g>
    </g>
  </g>
</svg>
